<svg width="358" height="293" viewBox="0 0 358 293" fill="none" xmlns="http://www.w3.org/2000/svg">
<g id="artistes">
<g id="MICHEL SARTROUILLE">
<mask id="path-1-outside-1_343_2341" maskUnits="userSpaceOnUse" x="31.5" y="46" width="259" height="21" fill="black">
<rect fill="white" x="31.5" y="46" width="259" height="21"/>
<path d="M53.124 48.008V65H47.82V56.528L45.204 65H40.644L38.028 56.528V65H32.7V48.008H39.228L42.972 58.208L46.62 48.008H53.124ZM60.8561 48.008V65H55.5281V48.008H60.8561ZM62.7825 56.48C62.7825 54.8 63.1185 53.304 63.7905 51.992C64.4785 50.68 65.4545 49.664 66.7185 48.944C67.9825 48.208 69.4705 47.84 71.1825 47.84C72.6545 47.84 73.9665 48.12 75.1185 48.68C76.2865 49.224 77.2305 50 77.9505 51.008C78.6865 52.016 79.1745 53.192 79.4145 54.536H73.7985C73.5425 53.976 73.1745 53.544 72.6945 53.24C72.2305 52.92 71.6945 52.76 71.0865 52.76C70.1905 52.76 69.4785 53.096 68.9505 53.768C68.4385 54.44 68.1825 55.344 68.1825 56.48C68.1825 57.616 68.4385 58.52 68.9505 59.192C69.4785 59.864 70.1905 60.2 71.0865 60.2C71.6945 60.2 72.2305 60.048 72.6945 59.744C73.1745 59.424 73.5425 58.984 73.7985 58.424H79.4145C79.1745 59.768 78.6865 60.944 77.9505 61.952C77.2305 62.96 76.2865 63.744 75.1185 64.304C73.9665 64.848 72.6545 65.12 71.1825 65.12C69.4705 65.12 67.9825 64.76 66.7185 64.04C65.4545 63.304 64.4785 62.28 63.7905 60.968C63.1185 59.656 62.7825 58.16 62.7825 56.48ZM97.0528 48.008V65H91.7248V58.376H86.6608V65H81.3328V48.008H86.6608V54.128H91.7248V48.008H97.0528ZM104.778 52.256V54.344H110.058V58.352H104.778V60.752H110.778V65H99.45V48.008H110.778V52.256H104.778ZM118.114 60.968H123.25V65H112.786V48.008H118.114V60.968ZM135.653 65.168C133.621 65.168 131.941 64.696 130.613 63.752C129.301 62.792 128.589 61.392 128.477 59.552H134.141C134.221 60.528 134.653 61.016 135.437 61.016C135.725 61.016 135.965 60.952 136.157 60.824C136.365 60.68 136.469 60.464 136.469 60.176C136.469 59.776 136.253 59.456 135.821 59.216C135.389 58.96 134.717 58.672 133.805 58.352C132.717 57.968 131.813 57.592 131.093 57.224C130.389 56.856 129.781 56.32 129.269 55.616C128.757 54.912 128.509 54.008 128.525 52.904C128.525 51.8 128.805 50.864 129.365 50.096C129.941 49.312 130.717 48.72 131.693 48.32C132.685 47.92 133.797 47.72 135.029 47.72C137.109 47.72 138.757 48.2 139.973 49.16C141.205 50.12 141.853 51.472 141.917 53.216H136.181C136.165 52.736 136.045 52.392 135.821 52.184C135.597 51.976 135.325 51.872 135.005 51.872C134.781 51.872 134.597 51.952 134.453 52.112C134.309 52.256 134.237 52.464 134.237 52.736C134.237 53.12 134.445 53.44 134.861 53.696C135.293 53.936 135.973 54.232 136.901 54.584C137.973 54.984 138.853 55.368 139.541 55.736C140.245 56.104 140.853 56.616 141.365 57.272C141.877 57.928 142.133 58.752 142.133 59.744C142.133 60.784 141.877 61.72 141.365 62.552C140.853 63.368 140.109 64.008 139.133 64.472C138.157 64.936 136.997 65.168 135.653 65.168ZM154.901 62.432H149.237L148.397 65H142.805L149.021 48.008H155.165L161.357 65H155.741L154.901 62.432ZM153.605 58.424L152.069 53.696L150.533 58.424H153.605ZM171.111 65L167.919 58.904H167.895V65H162.567V48.008H170.487C171.863 48.008 173.039 48.256 174.015 48.752C174.991 49.232 175.719 49.896 176.199 50.744C176.695 51.576 176.943 52.52 176.943 53.576C176.943 54.712 176.623 55.72 175.983 56.6C175.359 57.48 174.455 58.112 173.271 58.496L176.967 65H171.111ZM167.895 55.352H170.007C170.519 55.352 170.903 55.24 171.159 55.016C171.415 54.776 171.543 54.408 171.543 53.912C171.543 53.464 171.407 53.112 171.135 52.856C170.879 52.6 170.503 52.472 170.007 52.472H167.895V55.352ZM191.989 48.008V52.232H187.477V65H182.149V52.232H177.685V48.008H191.989ZM201.978 65L198.786 58.904H198.762V65H193.434V48.008H201.354C202.73 48.008 203.906 48.256 204.882 48.752C205.858 49.232 206.586 49.896 207.066 50.744C207.562 51.576 207.81 52.52 207.81 53.576C207.81 54.712 207.49 55.72 206.85 56.6C206.226 57.48 205.322 58.112 204.138 58.496L207.834 65H201.978ZM198.762 55.352H200.874C201.386 55.352 201.77 55.24 202.026 55.016C202.282 54.776 202.41 54.408 202.41 53.912C202.41 53.464 202.274 53.112 202.002 52.856C201.746 52.6 201.37 52.472 200.874 52.472H198.762V55.352ZM217.793 65.168C216.193 65.168 214.721 64.792 213.377 64.04C212.049 63.288 210.993 62.248 210.209 60.92C209.425 59.592 209.033 58.096 209.033 56.432C209.033 54.768 209.425 53.272 210.209 51.944C210.993 50.616 212.049 49.584 213.377 48.848C214.721 48.096 216.193 47.72 217.793 47.72C219.393 47.72 220.857 48.096 222.185 48.848C223.513 49.584 224.561 50.616 225.329 51.944C226.113 53.272 226.505 54.768 226.505 56.432C226.505 58.096 226.113 59.592 225.329 60.92C224.561 62.248 223.505 63.288 222.161 64.04C220.833 64.792 219.377 65.168 217.793 65.168ZM217.793 60.2C218.849 60.2 219.665 59.864 220.241 59.192C220.817 58.504 221.105 57.584 221.105 56.432C221.105 55.264 220.817 54.344 220.241 53.672C219.665 52.984 218.849 52.64 217.793 52.64C216.721 52.64 215.897 52.984 215.321 53.672C214.745 54.344 214.457 55.264 214.457 56.432C214.457 57.584 214.745 58.504 215.321 59.192C215.897 59.864 216.721 60.2 217.793 60.2ZM233.635 48.008V57.584C233.635 58.368 233.803 58.992 234.139 59.456C234.491 59.904 235.051 60.128 235.819 60.128C236.587 60.128 237.155 59.904 237.523 59.456C237.891 58.992 238.075 58.368 238.075 57.584V48.008H243.379V57.584C243.379 59.2 243.043 60.584 242.371 61.736C241.699 62.872 240.779 63.728 239.611 64.304C238.443 64.88 237.139 65.168 235.699 65.168C234.259 65.168 232.979 64.88 231.859 64.304C230.755 63.728 229.891 62.872 229.267 61.736C228.643 60.6 228.331 59.216 228.331 57.584V48.008H233.635ZM251.005 48.008V65H245.677V48.008H251.005ZM258.739 60.968H263.875V65H253.411V48.008H258.739V60.968ZM270.88 60.968H276.016V65H265.552V48.008H270.88V60.968ZM283.02 52.256V54.344H288.3V58.352H283.02V60.752H289.02V65H277.692V48.008H289.02V52.256H283.02Z"/>
</mask>
<path d="M53.124 48.008H54.124V47.008H53.124V48.008ZM53.124 65V66H54.124V65H53.124ZM47.82 65H46.82V66H47.82V65ZM47.82 56.528H48.82L46.8645 56.233L47.82 56.528ZM45.204 65V66H45.9418L46.1595 65.295L45.204 65ZM40.644 65L39.6885 65.295L39.9062 66H40.644V65ZM38.028 56.528L38.9835 56.233L37.028 56.528H38.028ZM38.028 65V66H39.028V65H38.028ZM32.7 65H31.7V66H32.7V65ZM32.7 48.008V47.008H31.7V48.008H32.7ZM39.228 48.008L40.1668 47.6634L39.9262 47.008H39.228V48.008ZM42.972 58.208L42.0332 58.5526L42.9842 61.1434L43.9136 58.5448L42.972 58.208ZM46.62 48.008V47.008H45.9156L45.6784 47.6712L46.62 48.008ZM52.124 48.008V65H54.124V48.008H52.124ZM53.124 64H47.82V66H53.124V64ZM48.82 65V56.528H46.82V65H48.82ZM46.8645 56.233L44.2485 64.705L46.1595 65.295L48.7755 56.823L46.8645 56.233ZM45.204 64H40.644V66H45.204V64ZM41.5995 64.705L38.9835 56.233L37.0725 56.823L39.6885 65.295L41.5995 64.705ZM37.028 56.528V65H39.028V56.528H37.028ZM38.028 64H32.7V66H38.028V64ZM33.7 65V48.008H31.7V65H33.7ZM32.7 49.008H39.228V47.008H32.7V49.008ZM38.2892 48.3526L42.0332 58.5526L43.9108 57.8634L40.1668 47.6634L38.2892 48.3526ZM43.9136 58.5448L47.5616 48.3448L45.6784 47.6712L42.0304 57.8712L43.9136 58.5448ZM46.62 49.008H53.124V47.008H46.62V49.008ZM60.8561 48.008H61.8561V47.008H60.8561V48.008ZM60.8561 65V66H61.8561V65H60.8561ZM55.5281 65H54.5281V66H55.5281V65ZM55.5281 48.008V47.008H54.5281V48.008H55.5281ZM59.8561 48.008V65H61.8561V48.008H59.8561ZM60.8561 64H55.5281V66H60.8561V64ZM56.5281 65V48.008H54.5281V65H56.5281ZM55.5281 49.008H60.8561V47.008H55.5281V49.008ZM63.7905 51.992L62.9048 51.5276L62.9005 51.5361L63.7905 51.992ZM66.7185 48.944L67.2135 49.813L67.2217 49.8082L66.7185 48.944ZM75.1185 48.68L74.6813 49.5794L74.6888 49.583L74.6963 49.5865L75.1185 48.68ZM77.9505 51.008L77.1367 51.5893L77.1429 51.5977L77.9505 51.008ZM79.4145 54.536V55.536H80.6089L80.3989 54.3602L79.4145 54.536ZM73.7985 54.536L72.889 54.9518L73.1561 55.536H73.7985V54.536ZM72.6945 53.24L72.1268 54.0632L72.1429 54.0743L72.1594 54.0848L72.6945 53.24ZM68.9505 53.768L68.1642 53.1502L68.1596 53.156L68.1551 53.162L68.9505 53.768ZM68.9505 59.192L68.1551 59.798L68.1596 59.804L68.1642 59.8098L68.9505 59.192ZM72.6945 59.744L73.2425 60.5805L73.2492 60.576L72.6945 59.744ZM73.7985 58.424V57.424H73.1561L72.889 58.0082L73.7985 58.424ZM79.4145 58.424L80.3989 58.5998L80.6089 57.424H79.4145V58.424ZM77.9505 61.952L77.1428 61.3623L77.1368 61.3708L77.9505 61.952ZM75.1185 64.304L75.5455 65.2083L75.5508 65.2057L75.1185 64.304ZM66.7185 64.04L66.2153 64.9042L66.2235 64.9089L66.7185 64.04ZM63.7905 60.968L62.9004 61.4239L62.9049 61.4324L63.7905 60.968ZM63.7825 56.48C63.7825 54.9362 64.0903 53.6002 64.6805 52.4479L62.9005 51.5361C62.1467 53.0078 61.7825 54.6638 61.7825 56.48H63.7825ZM64.6761 52.4564C65.277 51.3105 66.1189 50.4364 67.2135 49.8129L66.2235 48.0751C64.7901 48.8916 63.68 50.0495 62.9049 51.5276L64.6761 52.4564ZM67.2217 49.8082C68.3086 49.1753 69.6169 48.84 71.1825 48.84V46.84C69.3241 46.84 67.6564 47.2407 66.2153 48.0798L67.2217 49.8082ZM71.1825 48.84C72.5256 48.84 73.6845 49.0948 74.6813 49.5794L75.5557 47.7806C74.2485 47.1452 72.7834 46.84 71.1825 46.84V48.84ZM74.6963 49.5865C75.7145 50.0607 76.5211 50.7274 77.1368 51.5892L78.7642 50.4268C77.9399 49.2726 76.8586 48.3873 75.5407 47.7735L74.6963 49.5865ZM77.1429 51.5977C77.7811 52.4718 78.2142 53.5031 78.4301 54.7118L80.3989 54.3602C80.1348 52.8809 79.5919 51.5602 78.7581 50.4183L77.1429 51.5977ZM79.4145 53.536H73.7985V55.536H79.4145V53.536ZM74.708 54.1202C74.3784 53.3994 73.887 52.8116 73.2296 52.3952L72.1594 54.0848C72.462 54.2764 72.7066 54.5526 72.889 54.9518L74.708 54.1202ZM73.2622 52.4168C72.618 51.9725 71.8805 51.76 71.0865 51.76V53.76C71.5085 53.76 71.843 53.8675 72.1268 54.0632L73.2622 52.4168ZM71.0865 51.76C69.9009 51.76 68.8922 52.2237 68.1642 53.1502L69.7368 54.3858C70.0648 53.9683 70.4801 53.76 71.0865 53.76V51.76ZM68.1551 53.162C67.4712 54.0595 67.1825 55.1999 67.1825 56.48H69.1825C69.1825 55.4881 69.4058 54.8205 69.7459 54.374L68.1551 53.162ZM67.1825 56.48C67.1825 57.7601 67.4712 58.9005 68.1551 59.798L69.7459 58.586C69.4058 58.1395 69.1825 57.4719 69.1825 56.48H67.1825ZM68.1642 59.8098C68.8922 60.7363 69.9009 61.2 71.0865 61.2V59.2C70.4801 59.2 70.0648 58.9917 69.7368 58.5742L68.1642 59.8098ZM71.0865 61.2C71.8697 61.2 72.6001 61.0014 73.2425 60.5805L72.1465 58.9075C71.8609 59.0947 71.5193 59.2 71.0865 59.2V61.2ZM73.2492 60.576C73.8944 60.1459 74.3801 59.5569 74.708 58.8398L72.889 58.0082C72.7049 58.4111 72.4546 58.7021 72.1398 58.9119L73.2492 60.576ZM73.7985 59.424H79.4145V57.424H73.7985V59.424ZM78.4301 58.2482C78.2142 59.4569 77.7811 60.4882 77.1429 61.3623L78.7581 62.5417C79.5919 61.3998 80.1348 60.0791 80.3989 58.5998L78.4301 58.2482ZM77.1368 61.3708C76.5194 62.2351 75.7092 62.9118 74.6862 63.4023L75.5508 65.2057C76.8638 64.5762 77.9416 63.6849 78.7642 62.5332L77.1368 61.3708ZM74.6915 63.3998C73.6923 63.8716 72.5297 64.12 71.1825 64.12V66.12C72.7793 66.12 74.2407 65.8244 75.5455 65.2082L74.6915 63.3998ZM71.1825 64.12C69.6132 64.12 68.3019 63.7911 67.2135 63.1711L66.2235 64.9089C67.6631 65.7289 69.3278 66.12 71.1825 66.12V64.12ZM67.2217 63.1758C66.1224 62.5357 65.278 61.6513 64.6761 60.5036L62.9049 61.4324C63.679 62.9087 64.7866 64.0723 66.2153 64.9042L67.2217 63.1758ZM64.6805 60.5121C64.0903 59.3598 63.7825 58.0238 63.7825 56.48H61.7825C61.7825 58.2962 62.1467 59.9522 62.9005 61.4239L64.6805 60.5121ZM97.0528 48.008H98.0528V47.008H97.0528V48.008ZM97.0528 65V66H98.0528V65H97.0528ZM91.7248 65H90.7248V66H91.7248V65ZM91.7248 58.376H92.7248V57.376H91.7248V58.376ZM86.6608 58.376V57.376H85.6608V58.376H86.6608ZM86.6608 65V66H87.6608V65H86.6608ZM81.3328 65H80.3328V66H81.3328V65ZM81.3328 48.008V47.008H80.3328V48.008H81.3328ZM86.6608 48.008H87.6608V47.008H86.6608V48.008ZM86.6608 54.128H85.6608V55.128H86.6608V54.128ZM91.7248 54.128V55.128H92.7248V54.128H91.7248ZM91.7248 48.008V47.008H90.7248V48.008H91.7248ZM96.0528 48.008V65H98.0528V48.008H96.0528ZM97.0528 64H91.7248V66H97.0528V64ZM92.7248 65V58.376H90.7248V65H92.7248ZM91.7248 57.376H86.6608V59.376H91.7248V57.376ZM85.6608 58.376V65H87.6608V58.376H85.6608ZM86.6608 64H81.3328V66H86.6608V64ZM82.3328 65V48.008H80.3328V65H82.3328ZM81.3328 49.008H86.6608V47.008H81.3328V49.008ZM85.6608 48.008V54.128H87.6608V48.008H85.6608ZM86.6608 55.128H91.7248V53.128H86.6608V55.128ZM92.7248 54.128V48.008H90.7248V54.128H92.7248ZM91.7248 49.008H97.0528V47.008H91.7248V49.008ZM104.778 52.256V51.256H103.778V52.256H104.778ZM104.778 54.344H103.778V55.344H104.778V54.344ZM110.058 54.344H111.058V53.344H110.058V54.344ZM110.058 58.352V59.352H111.058V58.352H110.058ZM104.778 58.352V57.352H103.778V58.352H104.778ZM104.778 60.752H103.778V61.752H104.778V60.752ZM110.778 60.752H111.778V59.752H110.778V60.752ZM110.778 65V66H111.778V65H110.778ZM99.45 65H98.45V66H99.45V65ZM99.45 48.008V47.008H98.45V48.008H99.45ZM110.778 48.008H111.778V47.008H110.778V48.008ZM110.778 52.256V53.256H111.778V52.256H110.778ZM103.778 52.256V54.344H105.778V52.256H103.778ZM104.778 55.344H110.058V53.344H104.778V55.344ZM109.058 54.344V58.352H111.058V54.344H109.058ZM110.058 57.352H104.778V59.352H110.058V57.352ZM103.778 58.352V60.752H105.778V58.352H103.778ZM104.778 61.752H110.778V59.752H104.778V61.752ZM109.778 60.752V65H111.778V60.752H109.778ZM110.778 64H99.45V66H110.778V64ZM100.45 65V48.008H98.45V65H100.45ZM99.45 49.008H110.778V47.008H99.45V49.008ZM109.778 48.008V52.256H111.778V48.008H109.778ZM110.778 51.256H104.778V53.256H110.778V51.256ZM118.114 60.968H117.114V61.968H118.114V60.968ZM123.25 60.968H124.25V59.968H123.25V60.968ZM123.25 65V66H124.25V65H123.25ZM112.786 65H111.786V66H112.786V65ZM112.786 48.008V47.008H111.786V48.008H112.786ZM118.114 48.008H119.114V47.008H118.114V48.008ZM118.114 61.968H123.25V59.968H118.114V61.968ZM122.25 60.968V65H124.25V60.968H122.25ZM123.25 64H112.786V66H123.25V64ZM113.786 65V48.008H111.786V65H113.786ZM112.786 49.008H118.114V47.008H112.786V49.008ZM117.114 48.008V60.968H119.114V48.008H117.114ZM130.613 63.752L130.022 64.5591L130.033 64.5671L130.613 63.752ZM128.477 59.552V58.552H127.414L127.479 59.6128L128.477 59.552ZM134.141 59.552L135.137 59.4703L135.062 58.552H134.141V59.552ZM136.157 60.824L136.711 61.656L136.719 61.6512L136.726 61.6462L136.157 60.824ZM135.821 59.216L135.311 60.0763L135.323 60.0834L135.335 60.0902L135.821 59.216ZM133.805 58.352L133.472 59.295L133.474 59.2956L133.805 58.352ZM131.093 57.224L130.629 58.1103L130.638 58.1144L131.093 57.224ZM129.269 55.616L130.077 55.0278V55.0278L129.269 55.616ZM128.525 52.904L129.525 52.9185L129.525 52.9112V52.904H128.525ZM129.365 50.096L128.559 49.5039L128.557 49.5068L129.365 50.096ZM131.693 48.32L131.319 47.3925L131.313 47.3947L131.693 48.32ZM139.973 49.16L139.353 49.9449L139.358 49.9488L139.973 49.16ZM141.917 53.216V54.216H142.954L142.916 53.1793L141.917 53.216ZM136.181 53.216L135.181 53.2493L135.213 54.216H136.181V53.216ZM134.453 52.112L135.16 52.8191L135.178 52.8005L135.196 52.781L134.453 52.112ZM134.861 53.696L134.337 54.5477L134.356 54.5593L134.375 54.5702L134.861 53.696ZM136.901 54.584L136.546 55.519L136.551 55.5209L136.901 54.584ZM139.541 55.736L139.069 56.6178L139.077 56.6222L139.541 55.736ZM141.365 57.272L140.576 57.8873L141.365 57.272ZM141.365 62.552L142.212 63.0835L142.216 63.0761L141.365 62.552ZM139.133 64.472L138.703 63.5689L139.133 64.472ZM135.653 64.168C133.777 64.168 132.313 63.7338 131.192 62.9369L130.033 64.5671C131.568 65.6582 133.465 66.168 135.653 66.168V64.168ZM131.203 62.945C130.165 62.1855 129.571 61.0789 129.475 59.4912L127.479 59.6128C127.606 61.7051 128.436 63.3985 130.022 64.559L131.203 62.945ZM128.477 60.552H134.141V58.552H128.477V60.552ZM133.144 59.6337C133.193 60.2343 133.361 60.8438 133.776 61.3128C134.22 61.8145 134.822 62.016 135.437 62.016V60.016C135.344 60.016 135.3 60.0016 135.287 59.9964C135.279 59.9931 135.278 59.9921 135.273 59.9872C135.257 59.9682 135.168 59.8457 135.137 59.4703L133.144 59.6337ZM135.437 62.016C135.873 62.016 136.319 61.9179 136.711 61.656L135.602 59.9919C135.611 59.9861 135.576 60.016 135.437 60.016V62.016ZM136.726 61.6462C137.244 61.2873 137.469 60.7395 137.469 60.176H135.469C135.469 60.1996 135.465 60.1721 135.49 60.1202C135.502 60.0949 135.518 60.0699 135.537 60.0476C135.557 60.0254 135.575 60.0106 135.587 60.0018L136.726 61.6462ZM137.469 60.176C137.469 59.3222 136.968 58.7093 136.306 58.3418L135.335 60.0902C135.451 60.1545 135.479 60.1973 135.478 60.1955C135.477 60.1941 135.473 60.1877 135.47 60.1783C135.468 60.1693 135.469 60.1671 135.469 60.176H137.469ZM136.33 58.3557C135.811 58.0481 135.064 57.7341 134.136 57.4084L133.474 59.2956C134.369 59.6099 134.966 59.8719 135.311 60.0763L136.33 58.3557ZM134.138 57.409C133.075 57.0341 132.216 56.6748 131.548 56.3336L130.638 58.1144C131.41 58.5092 132.358 58.9019 133.472 59.295L134.138 57.409ZM131.556 56.3378C131.001 56.0478 130.508 55.6193 130.077 55.0278L128.46 56.2042C129.054 57.0207 129.776 57.6642 130.629 58.1102L131.556 56.3378ZM130.077 55.0278C129.723 54.5409 129.511 53.8648 129.525 52.9185L127.525 52.8895C127.507 54.1512 127.79 55.2831 128.46 56.2042L130.077 55.0278ZM129.525 52.904C129.525 51.9764 129.757 51.2555 130.173 50.6852L128.557 49.5068C127.853 50.4725 127.525 51.6236 127.525 52.904H129.525ZM130.171 50.6881C130.629 50.0647 131.251 49.5817 132.072 49.2453L131.313 47.3947C130.182 47.8583 129.253 48.5593 128.559 49.5039L130.171 50.6881ZM132.067 49.2474C132.923 48.9021 133.906 48.72 135.029 48.72V46.72C133.688 46.72 132.446 46.9379 131.319 47.3926L132.067 49.2474ZM135.029 48.72C136.961 48.72 138.366 49.1653 139.353 49.9449L140.592 48.3751C139.148 47.2347 137.257 46.72 135.029 46.72V48.72ZM139.358 49.9488C140.328 50.7045 140.863 51.7649 140.917 53.2527L142.916 53.1793C142.843 51.1791 142.081 49.5355 140.587 48.3712L139.358 49.9488ZM141.917 52.216H136.181V54.216H141.917V52.216ZM137.18 53.1827C137.16 52.584 137.007 51.921 136.501 51.4512L135.14 52.9168C135.112 52.8904 135.118 52.8799 135.134 52.9274C135.153 52.9792 135.176 53.0801 135.181 53.2493L137.18 53.1827ZM136.501 51.4512C136.083 51.0628 135.564 50.872 135.005 50.872V52.872C135.085 52.872 135.111 52.8892 135.14 52.9168L136.501 51.4512ZM135.005 50.872C134.51 50.872 134.052 51.0628 133.709 51.443L135.196 52.781C135.179 52.7995 135.146 52.8279 135.097 52.8491C135.05 52.8698 135.014 52.872 135.005 52.872V50.872ZM133.746 51.4049C133.358 51.7927 133.237 52.2907 133.237 52.736H135.237C135.237 52.6861 135.244 52.6804 135.236 52.7031C135.232 52.7151 135.224 52.7334 135.211 52.755C135.197 52.7769 135.18 52.7989 135.16 52.8191L133.746 51.4049ZM133.237 52.736C133.237 53.5631 133.717 54.1663 134.337 54.5477L135.385 52.8443C135.269 52.773 135.235 52.7251 135.231 52.719C135.23 52.7167 135.232 52.7204 135.235 52.7287C135.237 52.7368 135.237 52.7405 135.237 52.736H133.237ZM134.375 54.5702C134.873 54.8467 135.608 55.1633 136.546 55.519L137.255 53.649C136.337 53.3007 135.713 53.0253 135.346 52.8218L134.375 54.5702ZM136.551 55.5209C137.599 55.9118 138.434 56.2781 139.069 56.6178L140.012 54.8542C139.271 54.4579 138.347 54.0562 137.25 53.6471L136.551 55.5209ZM139.077 56.6222C139.649 56.921 140.148 57.3383 140.576 57.8873L142.153 56.6567C141.557 55.8937 140.84 55.287 140.004 54.8498L139.077 56.6222ZM140.576 57.8873C140.926 58.3355 141.133 58.9306 141.133 59.744H143.133C143.133 58.5734 142.827 57.5205 142.153 56.6567L140.576 57.8873ZM141.133 59.744C141.133 60.6114 140.922 61.3638 140.513 62.0279L142.216 63.0761C142.832 62.0762 143.133 60.9566 143.133 59.744H141.133ZM140.518 62.0205C140.119 62.6563 139.529 63.1763 138.703 63.5689L139.562 65.3751C140.688 64.8397 141.587 64.0797 142.212 63.0835L140.518 62.0205ZM138.703 63.5689C137.89 63.9555 136.883 64.168 135.653 64.168V66.168C137.11 66.168 138.423 65.9165 139.562 65.3751L138.703 63.5689ZM154.901 62.432L155.851 62.1211L155.626 61.432H154.901V62.432ZM149.237 62.432V61.432H148.512L148.286 62.1211L149.237 62.432ZM148.397 65V66H149.122L149.347 65.3109L148.397 65ZM142.805 65L141.866 64.6564L141.374 66H142.805V65ZM149.021 48.008V47.008H148.322L148.082 47.6644L149.021 48.008ZM155.165 48.008L156.104 47.6656L155.865 47.008H155.165V48.008ZM161.357 65V66H162.785L162.296 64.6576L161.357 65ZM155.741 65L154.79 65.3109L155.016 66H155.741V65ZM153.605 58.424V59.424H154.981L154.556 58.115L153.605 58.424ZM152.069 53.696L153.02 53.387L152.069 50.4595L151.118 53.387L152.069 53.696ZM150.533 58.424L149.582 58.115L149.156 59.424H150.533V58.424ZM154.901 61.432H149.237V63.432H154.901V61.432ZM148.286 62.1211L147.446 64.6891L149.347 65.3109L150.187 62.7429L148.286 62.1211ZM148.397 64H142.805V66H148.397V64ZM143.744 65.3436L149.96 48.3516L148.082 47.6644L141.866 64.6564L143.744 65.3436ZM149.021 49.008H155.165V47.008H149.021V49.008ZM154.225 48.3504L160.417 65.3424L162.296 64.6576L156.104 47.6656L154.225 48.3504ZM161.357 64H155.741V66H161.357V64ZM156.691 64.6891L155.851 62.1211L153.95 62.7429L154.79 65.3109L156.691 64.6891ZM154.556 58.115L153.02 53.387L151.118 54.005L152.654 58.733L154.556 58.115ZM151.118 53.387L149.582 58.115L151.484 58.733L153.02 54.005L151.118 53.387ZM150.533 59.424H153.605V57.424H150.533V59.424ZM171.111 65L170.225 65.4639L170.506 66H171.111V65ZM167.919 58.904L168.805 58.4401L168.524 57.904H167.919V58.904ZM167.895 58.904V57.904H166.895V58.904H167.895ZM167.895 65V66H168.895V65H167.895ZM162.567 65H161.567V66H162.567V65ZM162.567 48.008V47.008H161.567V48.008H162.567ZM174.015 48.752L173.562 49.6436L173.574 49.6493L174.015 48.752ZM176.199 50.744L175.329 51.2366L175.334 51.2464L175.34 51.2561L176.199 50.744ZM175.983 56.6L175.174 56.0118L175.167 56.0216L175.983 56.6ZM173.271 58.496L172.963 57.5448L171.796 57.9233L172.402 58.9901L173.271 58.496ZM176.967 65V66H178.686L177.837 64.5059L176.967 65ZM167.895 55.352H166.895V56.352H167.895V55.352ZM171.159 55.016L171.818 55.7686L171.831 55.7573L171.843 55.7455L171.159 55.016ZM171.135 52.856L170.428 53.5631L170.439 53.5738L170.45 53.5842L171.135 52.856ZM167.895 52.472V51.472H166.895V52.472H167.895ZM171.997 64.5361L168.805 58.4401L167.033 59.3679L170.225 65.4639L171.997 64.5361ZM167.919 57.904H167.895V59.904H167.919V57.904ZM166.895 58.904V65H168.895V58.904H166.895ZM167.895 64H162.567V66H167.895V64ZM163.567 65V48.008H161.567V65H163.567ZM162.567 49.008H170.487V47.008H162.567V49.008ZM170.487 49.008C171.745 49.008 172.758 49.2348 173.562 49.6435L174.468 47.8605C173.32 47.2772 171.981 47.008 170.487 47.008V49.008ZM173.574 49.6493C174.391 50.0513 174.959 50.5836 175.329 51.2366L177.069 50.2514C176.479 49.2084 175.591 48.4127 174.457 47.8546L173.574 49.6493ZM175.34 51.2561C175.736 51.9194 175.943 52.6835 175.943 53.576H177.943C177.943 52.3565 177.655 51.2326 177.058 50.2319L175.34 51.2561ZM175.943 53.576C175.943 54.5106 175.684 55.3106 175.174 56.0118L176.792 57.1882C177.562 56.1294 177.943 54.9134 177.943 53.576H175.943ZM175.167 56.0216C174.687 56.6998 173.975 57.2166 172.963 57.5448L173.58 59.4472C174.936 59.0074 176.032 58.2602 176.799 57.1784L175.167 56.0216ZM172.402 58.9901L176.098 65.4941L177.837 64.5059L174.141 58.0019L172.402 58.9901ZM176.967 64H171.111V66H176.967V64ZM167.895 56.352H170.007V54.352H167.895V56.352ZM170.007 56.352C170.643 56.352 171.307 56.2158 171.818 55.7686L170.501 54.2634C170.5 54.2642 170.395 54.352 170.007 54.352V56.352ZM171.843 55.7455C172.373 55.2492 172.543 54.5677 172.543 53.912H170.543C170.543 54.0772 170.521 54.1775 170.503 54.2315C170.494 54.2574 170.486 54.2716 170.482 54.278C170.478 54.284 170.476 54.2859 170.475 54.2865L171.843 55.7455ZM172.543 53.912C172.543 53.2477 172.333 52.61 171.821 52.1278L170.45 53.5842C170.482 53.614 170.543 53.6803 170.543 53.912H172.543ZM171.842 52.1489C171.338 51.6446 170.668 51.472 170.007 51.472V53.472C170.338 53.472 170.42 53.5554 170.428 53.5631L171.842 52.1489ZM170.007 51.472H167.895V53.472H170.007V51.472ZM166.895 52.472V55.352H168.895V52.472H166.895ZM191.989 48.008H192.989V47.008H191.989V48.008ZM191.989 52.232V53.232H192.989V52.232H191.989ZM187.477 52.232V51.232H186.477V52.232H187.477ZM187.477 65V66H188.477V65H187.477ZM182.149 65H181.149V66H182.149V65ZM182.149 52.232H183.149V51.232H182.149V52.232ZM177.685 52.232H176.685V53.232H177.685V52.232ZM177.685 48.008V47.008H176.685V48.008H177.685ZM190.989 48.008V52.232H192.989V48.008H190.989ZM191.989 51.232H187.477V53.232H191.989V51.232ZM186.477 52.232V65H188.477V52.232H186.477ZM187.477 64H182.149V66H187.477V64ZM183.149 65V52.232H181.149V65H183.149ZM182.149 51.232H177.685V53.232H182.149V51.232ZM178.685 52.232V48.008H176.685V52.232H178.685ZM177.685 49.008H191.989V47.008H177.685V49.008ZM201.978 65L201.092 65.4639L201.373 66H201.978V65ZM198.786 58.904L199.672 58.4401L199.392 57.904H198.786V58.904ZM198.762 58.904V57.904H197.762V58.904H198.762ZM198.762 65V66H199.762V65H198.762ZM193.434 65H192.434V66H193.434V65ZM193.434 48.008V47.008H192.434V48.008H193.434ZM204.882 48.752L204.429 49.6436L204.441 49.6493L204.882 48.752ZM207.066 50.744L206.196 51.2366L206.202 51.2464L206.207 51.2561L207.066 50.744ZM206.85 56.6L206.042 56.0118L206.035 56.0216L206.85 56.6ZM204.138 58.496L203.83 57.5448L202.663 57.9233L203.269 58.9901L204.138 58.496ZM207.834 65V66H209.553L208.704 64.5059L207.834 65ZM198.762 55.352H197.762V56.352H198.762V55.352ZM202.026 55.016L202.685 55.7686L202.698 55.7573L202.71 55.7455L202.026 55.016ZM202.002 52.856L201.295 53.5631L201.306 53.5738L201.317 53.5842L202.002 52.856ZM198.762 52.472V51.472H197.762V52.472H198.762ZM202.864 64.5361L199.672 58.4401L197.9 59.3679L201.092 65.4639L202.864 64.5361ZM198.786 57.904H198.762V59.904H198.786V57.904ZM197.762 58.904V65H199.762V58.904H197.762ZM198.762 64H193.434V66H198.762V64ZM194.434 65V48.008H192.434V65H194.434ZM193.434 49.008H201.354V47.008H193.434V49.008ZM201.354 49.008C202.612 49.008 203.625 49.2348 204.429 49.6435L205.335 47.8605C204.188 47.2772 202.848 47.008 201.354 47.008V49.008ZM204.441 49.6493C205.258 50.0513 205.826 50.5836 206.196 51.2366L207.937 50.2514C207.346 49.2084 206.458 48.4127 205.324 47.8546L204.441 49.6493ZM206.207 51.2561C206.603 51.9194 206.81 52.6835 206.81 53.576H208.81C208.81 52.3565 208.522 51.2326 207.925 50.2319L206.207 51.2561ZM206.81 53.576C206.81 54.5106 206.552 55.3106 206.042 56.0118L207.659 57.1882C208.429 56.1294 208.81 54.9134 208.81 53.576H206.81ZM206.035 56.0216C205.554 56.6998 204.842 57.2166 203.83 57.5448L204.447 59.4472C205.803 59.0074 206.899 58.2602 207.666 57.1784L206.035 56.0216ZM203.269 58.9901L206.965 65.4941L208.704 64.5059L205.008 58.0019L203.269 58.9901ZM207.834 64H201.978V66H207.834V64ZM198.762 56.352H200.874V54.352H198.762V56.352ZM200.874 56.352C201.51 56.352 202.174 56.2158 202.685 55.7686L201.368 54.2634C201.367 54.2642 201.263 54.352 200.874 54.352V56.352ZM202.71 55.7455C203.24 55.2492 203.41 54.5677 203.41 53.912H201.41C201.41 54.0772 201.389 54.1775 201.37 54.2315C201.361 54.2574 201.353 54.2716 201.349 54.278C201.345 54.284 201.343 54.2859 201.342 54.2865L202.71 55.7455ZM203.41 53.912C203.41 53.2477 203.2 52.61 202.688 52.1278L201.317 53.5842C201.349 53.614 201.41 53.6803 201.41 53.912H203.41ZM202.709 52.1489C202.205 51.6446 201.535 51.472 200.874 51.472V53.472C201.206 53.472 201.288 53.5554 201.295 53.5631L202.709 52.1489ZM200.874 51.472H198.762V53.472H200.874V51.472ZM197.762 52.472V55.352H199.762V52.472H197.762ZM213.376 64.04L212.884 64.9102L212.888 64.9127L213.376 64.04ZM210.208 60.92L209.347 61.4284L210.208 60.92ZM213.376 48.848L213.861 49.7227L213.865 49.7207L213.376 48.848ZM222.184 48.848L221.692 49.7182L221.7 49.7227L222.184 48.848ZM225.329 51.944L224.463 52.4446L224.467 52.4524L225.329 51.944ZM225.329 60.92L224.467 60.4116L224.463 60.4194L225.329 60.92ZM222.161 64.04L221.672 63.1673L221.668 63.1698L222.161 64.04ZM220.24 59.192L221 59.8428L221.007 59.8339L220.24 59.192ZM220.24 53.672L219.474 54.314L219.481 54.3228L220.24 53.672ZM215.32 53.672L216.08 54.3228L216.087 54.3139L215.32 53.672ZM215.32 59.192L214.554 59.834L214.561 59.8428L215.32 59.192ZM217.792 64.168C216.357 64.168 215.054 63.8325 213.865 63.1673L212.888 64.9127C214.387 65.7515 216.028 66.168 217.792 66.168V64.168ZM213.869 63.1698C212.695 62.505 211.766 61.5905 211.07 60.4116L209.347 61.4284C210.219 62.9055 211.402 64.071 212.884 64.9102L213.869 63.1698ZM211.07 60.4116C210.384 59.2497 210.033 57.9318 210.033 56.432H208.033C208.033 58.2602 208.465 59.9343 209.347 61.4284L211.07 60.4116ZM210.033 56.432C210.033 54.9322 210.384 53.6143 211.07 52.4524L209.347 51.4356C208.465 52.9297 208.033 54.6038 208.033 56.432H210.033ZM211.07 52.4524C211.765 51.2753 212.692 50.3709 213.861 49.7227L212.892 47.9733C211.405 48.7971 210.22 49.9567 209.347 51.4356L211.07 52.4524ZM213.865 49.7207C215.054 49.0555 216.357 48.72 217.792 48.72V46.72C216.028 46.72 214.387 47.1365 212.888 47.9753L213.865 49.7207ZM217.792 48.72C219.228 48.72 220.521 49.0555 221.692 49.7182L222.677 47.9778C221.192 47.1365 219.557 46.72 217.792 46.72V48.72ZM221.7 49.7227C222.868 50.3698 223.785 51.2718 224.463 52.4446L226.194 51.4434C225.336 49.9602 224.158 48.7982 222.669 47.9733L221.7 49.7227ZM224.467 52.4524C225.153 53.6143 225.505 54.9322 225.505 56.432H227.505C227.505 54.6038 227.072 52.9297 226.19 51.4356L224.467 52.4524ZM225.505 56.432C225.505 57.9318 225.153 59.2497 224.467 60.4116L226.19 61.4284C227.072 59.9343 227.505 58.2602 227.505 56.432H225.505ZM224.463 60.4194C223.785 61.591 222.86 62.5028 221.672 63.1673L222.649 64.9127C224.149 64.0732 225.336 62.905 226.194 61.4206L224.463 60.4194ZM221.668 63.1698C220.496 63.8334 219.211 64.168 217.792 64.168V66.168C219.542 66.168 221.169 65.7506 222.653 64.9102L221.668 63.1698ZM217.792 61.2C219.078 61.2 220.197 60.7795 221 59.8428L219.481 58.5412C219.132 58.9485 218.619 59.2 217.792 59.2V61.2ZM221.007 59.8339C221.772 58.9199 222.105 57.7507 222.105 56.432H220.105C220.105 57.4173 219.861 58.0881 219.474 58.5501L221.007 59.8339ZM222.105 56.432C222.105 55.1026 221.775 53.9256 221 53.0212L219.481 54.3228C219.858 54.7624 220.105 55.4254 220.105 56.432H222.105ZM221.007 53.0301C220.207 52.0741 219.086 51.64 217.792 51.64V53.64C218.611 53.64 219.122 53.8939 219.474 54.3139L221.007 53.0301ZM217.792 51.64C216.488 51.64 215.357 52.0705 214.554 53.0301L216.087 54.3139C216.436 53.8975 216.953 53.64 217.792 53.64V51.64ZM214.561 53.0212C213.786 53.9256 213.456 55.1026 213.456 56.432H215.456C215.456 55.4254 215.703 54.7624 216.08 54.3228L214.561 53.0212ZM213.456 56.432C213.456 57.7507 213.789 58.9199 214.554 59.8339L216.087 58.5501C215.7 58.0881 215.456 57.4173 215.456 56.432H213.456ZM214.561 59.8428C215.367 60.783 216.496 61.2 217.792 61.2V59.2C216.945 59.2 216.426 58.945 216.08 58.5412L214.561 59.8428ZM233.635 48.008H234.635V47.008H233.635V48.008ZM234.139 59.456L233.329 60.0425L233.34 60.0584L233.352 60.0738L234.139 59.456ZM237.523 59.456L238.295 60.0907L238.301 60.0841L238.306 60.0774L237.523 59.456ZM238.075 48.008V47.008H237.075V48.008H238.075ZM243.379 48.008H244.379V47.008H243.379V48.008ZM242.371 61.736L243.231 62.2451L243.234 62.2399L242.371 61.736ZM239.611 64.304L240.053 65.2009L239.611 64.304ZM231.859 64.304L231.396 65.1906L231.401 65.1933L231.859 64.304ZM229.267 61.736L228.39 62.2174L229.267 61.736ZM228.331 48.008V47.008H227.331V48.008H228.331ZM232.635 48.008V57.584H234.635V48.008H232.635ZM232.635 57.584C232.635 58.5026 232.831 59.3552 233.329 60.0425L234.949 58.8695C234.774 58.6288 234.635 58.2334 234.635 57.584H232.635ZM233.352 60.0738C233.955 60.8407 234.858 61.128 235.819 61.128V59.128C235.243 59.128 235.026 58.9673 234.925 58.8382L233.352 60.0738ZM235.819 61.128C236.782 61.128 237.68 60.8398 238.295 60.0907L236.75 58.8213C236.629 58.9682 236.391 59.128 235.819 59.128V61.128ZM238.306 60.0774C238.854 59.3867 239.075 58.5204 239.075 57.584H237.075C237.075 58.2156 236.927 58.5973 236.739 58.8346L238.306 60.0774ZM239.075 57.584V48.008H237.075V57.584H239.075ZM238.075 49.008H243.379V47.008H238.075V49.008ZM242.379 48.008V57.584H244.379V48.008H242.379ZM242.379 57.584C242.379 59.0604 242.072 60.2624 241.507 61.2321L243.234 62.2399C244.013 60.9056 244.379 59.3396 244.379 57.584H242.379ZM241.51 61.2269C240.935 62.1981 240.16 62.9182 239.168 63.4071L240.053 65.2009C241.397 64.5378 242.462 63.5459 243.231 62.2451L241.51 61.2269ZM239.168 63.4071C238.152 63.9084 237.002 64.168 235.699 64.168V66.168C237.276 66.168 238.733 65.8516 240.053 65.2009L239.168 63.4071ZM235.699 64.168C234.395 64.168 233.275 63.9081 232.316 63.4147L231.401 65.1933C232.682 65.8519 234.122 66.168 235.699 66.168V64.168ZM232.321 63.4174C231.399 62.9365 230.676 62.2251 230.143 61.2546L228.39 62.2174C229.105 63.5189 230.11 64.5195 231.396 65.1906L232.321 63.4174ZM230.143 61.2546C229.618 60.2995 229.331 59.0905 229.331 57.584H227.331C227.331 59.3415 227.667 60.9005 228.39 62.2174L230.143 61.2546ZM229.331 57.584V48.008H227.331V57.584H229.331ZM228.331 49.008H233.635V47.008H228.331V49.008ZM251.005 48.008H252.005V47.008H251.005V48.008ZM251.005 65V66H252.005V65H251.005ZM245.677 65H244.677V66H245.677V65ZM245.677 48.008V47.008H244.677V48.008H245.677ZM250.005 48.008V65H252.005V48.008H250.005ZM251.005 64H245.677V66H251.005V64ZM246.677 65V48.008H244.677V65H246.677ZM245.677 49.008H251.005V47.008H245.677V49.008ZM258.739 60.968H257.739V61.968H258.739V60.968ZM263.875 60.968H264.875V59.968H263.875V60.968ZM263.875 65V66H264.875V65H263.875ZM253.411 65H252.411V66H253.411V65ZM253.411 48.008V47.008H252.411V48.008H253.411ZM258.739 48.008H259.739V47.008H258.739V48.008ZM258.739 61.968H263.875V59.968H258.739V61.968ZM262.875 60.968V65H264.875V60.968H262.875ZM263.875 64H253.411V66H263.875V64ZM254.411 65V48.008H252.411V65H254.411ZM253.411 49.008H258.739V47.008H253.411V49.008ZM257.739 48.008V60.968H259.739V48.008H257.739ZM270.88 60.968H269.88V61.968H270.88V60.968ZM276.016 60.968H277.016V59.968H276.016V60.968ZM276.016 65V66H277.016V65H276.016ZM265.552 65H264.552V66H265.552V65ZM265.552 48.008V47.008H264.552V48.008H265.552ZM270.88 48.008H271.88V47.008H270.88V48.008ZM270.88 61.968H276.016V59.968H270.88V61.968ZM275.016 60.968V65H277.016V60.968H275.016ZM276.016 64H265.552V66H276.016V64ZM266.552 65V48.008H264.552V65H266.552ZM265.552 49.008H270.88V47.008H265.552V49.008ZM269.88 48.008V60.968H271.88V48.008H269.88ZM283.02 52.256V51.256H282.02V52.256H283.02ZM283.02 54.344H282.02V55.344H283.02V54.344ZM288.3 54.344H289.3V53.344H288.3V54.344ZM288.3 58.352V59.352H289.3V58.352H288.3ZM283.02 58.352V57.352H282.02V58.352H283.02ZM283.02 60.752H282.02V61.752H283.02V60.752ZM289.02 60.752H290.02V59.752H289.02V60.752ZM289.02 65V66H290.02V65H289.02ZM277.692 65H276.692V66H277.692V65ZM277.692 48.008V47.008H276.692V48.008H277.692ZM289.02 48.008H290.02V47.008H289.02V48.008ZM289.02 52.256V53.256H290.02V52.256H289.02ZM282.02 52.256V54.344H284.02V52.256H282.02ZM283.02 55.344H288.3V53.344H283.02V55.344ZM287.3 54.344V58.352H289.3V54.344H287.3ZM288.3 57.352H283.02V59.352H288.3V57.352ZM282.02 58.352V60.752H284.02V58.352H282.02ZM283.02 61.752H289.02V59.752H283.02V61.752ZM288.02 60.752V65H290.02V60.752H288.02ZM289.02 64H277.692V66H289.02V64ZM278.692 65V48.008H276.692V65H278.692ZM277.692 49.008H289.02V47.008H277.692V49.008ZM288.02 48.008V52.256H290.02V48.008H288.02ZM289.02 51.256H283.02V53.256H289.02V51.256Z" fill="black" mask="url(#path-1-outside-1_343_2341)"/>
</g>
<path id="ZOZ" d="M48.775 104.515H53.62V106H46.75V104.665L51.58 97.06H46.75V95.575H53.62V96.91L48.775 104.515ZM60.2443 106.105C59.2743 106.105 58.3793 105.88 57.5593 105.43C56.7493 104.97 56.1043 104.335 55.6243 103.525C55.1543 102.705 54.9193 101.785 54.9193 100.765C54.9193 99.745 55.1543 98.83 55.6243 98.02C56.1043 97.21 56.7493 96.58 57.5593 96.13C58.3793 95.67 59.2743 95.44 60.2443 95.44C61.2243 95.44 62.1193 95.67 62.9293 96.13C63.7493 96.58 64.3943 97.21 64.8643 98.02C65.3343 98.83 65.5693 99.745 65.5693 100.765C65.5693 101.785 65.3343 102.705 64.8643 103.525C64.3943 104.335 63.7493 104.97 62.9293 105.43C62.1193 105.88 61.2243 106.105 60.2443 106.105ZM60.2443 104.62C60.9343 104.62 61.5493 104.465 62.0893 104.155C62.6293 103.835 63.0493 103.385 63.3493 102.805C63.6593 102.215 63.8143 101.535 63.8143 100.765C63.8143 99.995 63.6593 99.32 63.3493 98.74C63.0493 98.16 62.6293 97.715 62.0893 97.405C61.5493 97.095 60.9343 96.94 60.2443 96.94C59.5543 96.94 58.9393 97.095 58.3993 97.405C57.8593 97.715 57.4343 98.16 57.1243 98.74C56.8243 99.32 56.6743 99.995 56.6743 100.765C56.6743 101.535 56.8243 102.215 57.1243 102.805C57.4343 103.385 57.8593 103.835 58.3993 104.155C58.9393 104.465 59.5543 104.62 60.2443 104.62ZM68.902 104.515H73.747V106H66.877V104.665L71.707 97.06H66.877V95.575H73.747V96.91L68.902 104.515Z" fill="black"/>
<path id="JAZZAPHON" d="M93.81 95.575V103.09C93.81 104.02 93.525 104.755 92.955 105.295C92.395 105.835 91.655 106.105 90.735 106.105C89.815 106.105 89.07 105.835 88.5 105.295C87.94 104.755 87.66 104.02 87.66 103.09H89.385C89.395 103.55 89.51 103.915 89.73 104.185C89.96 104.455 90.295 104.59 90.735 104.59C91.175 104.59 91.51 104.455 91.74 104.185C91.97 103.905 92.085 103.54 92.085 103.09V95.575H93.81ZM102.877 103.87H98.5118L97.7618 106H95.9768L99.7118 95.56H101.692L105.427 106H103.627L102.877 103.87ZM102.397 102.475L100.702 97.63L98.9918 102.475H102.397ZM108.701 104.515H113.546V106H106.676V104.665L111.506 97.06H106.676V95.575H113.546V96.91L108.701 104.515ZM117.065 104.515H121.91V106H115.04V104.665L119.87 97.06H115.04V95.575H121.91V96.91L117.065 104.515ZM130.064 103.87H125.699L124.949 106H123.164L126.899 95.56H128.879L132.614 106H130.814L130.064 103.87ZM129.584 102.475L127.889 97.63L126.179 102.475H129.584ZM141.528 98.68C141.528 99.21 141.403 99.71 141.153 100.18C140.903 100.65 140.503 101.035 139.953 101.335C139.403 101.625 138.698 101.77 137.838 101.77H135.948V106H134.238V95.575H137.838C138.638 95.575 139.313 95.715 139.863 95.995C140.423 96.265 140.838 96.635 141.108 97.105C141.388 97.575 141.528 98.1 141.528 98.68ZM137.838 100.375C138.488 100.375 138.973 100.23 139.293 99.94C139.613 99.64 139.773 99.22 139.773 98.68C139.773 97.54 139.128 96.97 137.838 96.97H135.948V100.375H137.838ZM151.484 95.575V106H149.774V101.44H144.869V106H143.159V95.575H144.869V100.045H149.774V95.575H151.484ZM158.49 106.105C157.52 106.105 156.625 105.88 155.805 105.43C154.995 104.97 154.35 104.335 153.87 103.525C153.4 102.705 153.165 101.785 153.165 100.765C153.165 99.745 153.4 98.83 153.87 98.02C154.35 97.21 154.995 96.58 155.805 96.13C156.625 95.67 157.52 95.44 158.49 95.44C159.47 95.44 160.365 95.67 161.175 96.13C161.995 96.58 162.64 97.21 163.11 98.02C163.58 98.83 163.815 99.745 163.815 100.765C163.815 101.785 163.58 102.705 163.11 103.525C162.64 104.335 161.995 104.97 161.175 105.43C160.365 105.88 159.47 106.105 158.49 106.105ZM158.49 104.62C159.18 104.62 159.795 104.465 160.335 104.155C160.875 103.835 161.295 103.385 161.595 102.805C161.905 102.215 162.06 101.535 162.06 100.765C162.06 99.995 161.905 99.32 161.595 98.74C161.295 98.16 160.875 97.715 160.335 97.405C159.795 97.095 159.18 96.94 158.49 96.94C157.8 96.94 157.185 97.095 156.645 97.405C156.105 97.715 155.68 98.16 155.37 98.74C155.07 99.32 154.92 99.995 154.92 100.765C154.92 101.535 155.07 102.215 155.37 102.805C155.68 103.385 156.105 103.835 156.645 104.155C157.185 104.465 157.8 104.62 158.49 104.62ZM174.063 106H172.353L167.208 98.215V106H165.498V95.56H167.208L172.353 103.33V95.56H174.063V106Z" fill="black"/>
<path id="Fifi Opiano" d="M207.68 94.1V95.96H201.78V100.06H206.38V101.92H201.78V108H199.5V94.1H207.68ZM210.953 95.52C210.54 95.52 210.193 95.38 209.913 95.1C209.633 94.82 209.493 94.4733 209.493 94.06C209.493 93.6467 209.633 93.3 209.913 93.02C210.193 92.74 210.54 92.6 210.953 92.6C211.353 92.6 211.693 92.74 211.973 93.02C212.253 93.3 212.393 93.6467 212.393 94.06C212.393 94.4733 212.253 94.82 211.973 95.1C211.693 95.38 211.353 95.52 210.953 95.52ZM212.073 96.98V108H209.793V96.98H212.073ZM219.686 98.84H217.646V108H215.346V98.84H214.046V96.98H215.346V96.2C215.346 94.9333 215.68 94.0133 216.346 93.44C217.026 92.8533 218.086 92.56 219.526 92.56V94.46C218.833 94.46 218.346 94.5933 218.066 94.86C217.786 95.1133 217.646 95.56 217.646 96.2V96.98H219.686V98.84ZM222.867 95.52C222.454 95.52 222.107 95.38 221.827 95.1C221.547 94.82 221.407 94.4733 221.407 94.06C221.407 93.6467 221.547 93.3 221.827 93.02C222.107 92.74 222.454 92.6 222.867 92.6C223.267 92.6 223.607 92.74 223.887 93.02C224.167 93.3 224.307 93.6467 224.307 94.06C224.307 94.4733 224.167 94.82 223.887 95.1C223.607 95.38 223.267 95.52 222.867 95.52ZM223.987 96.98V108H221.707V96.98H223.987ZM238.516 108.14C237.222 108.14 236.029 107.84 234.936 107.24C233.856 106.627 232.996 105.78 232.356 104.7C231.729 103.607 231.416 102.38 231.416 101.02C231.416 99.66 231.729 98.44 232.356 97.36C232.996 96.28 233.856 95.44 234.936 94.84C236.029 94.2267 237.222 93.92 238.516 93.92C239.822 93.92 241.016 94.2267 242.096 94.84C243.189 95.44 244.049 96.28 244.676 97.36C245.302 98.44 245.616 99.66 245.616 101.02C245.616 102.38 245.302 103.607 244.676 104.7C244.049 105.78 243.189 106.627 242.096 107.24C241.016 107.84 239.822 108.14 238.516 108.14ZM238.516 106.16C239.436 106.16 240.256 105.953 240.976 105.54C241.696 105.113 242.256 104.513 242.656 103.74C243.069 102.953 243.276 102.047 243.276 101.02C243.276 99.9933 243.069 99.0933 242.656 98.32C242.256 97.5467 241.696 96.9533 240.976 96.54C240.256 96.1267 239.436 95.92 238.516 95.92C237.596 95.92 236.776 96.1267 236.056 96.54C235.336 96.9533 234.769 97.5467 234.356 98.32C233.956 99.0933 233.756 99.9933 233.756 101.02C233.756 102.047 233.956 102.953 234.356 103.74C234.769 104.513 235.336 105.113 236.056 105.54C236.776 105.953 237.596 106.16 238.516 106.16ZM250.139 98.6C250.526 98.0933 251.053 97.6667 251.719 97.32C252.386 96.9733 253.139 96.8 253.979 96.8C254.939 96.8 255.813 97.04 256.599 97.52C257.399 97.9867 258.026 98.6467 258.479 99.5C258.933 100.353 259.159 101.333 259.159 102.44C259.159 103.547 258.933 104.54 258.479 105.42C258.026 106.287 257.399 106.967 256.599 107.46C255.813 107.94 254.939 108.18 253.979 108.18C253.139 108.18 252.393 108.013 251.739 107.68C251.086 107.333 250.553 106.907 250.139 106.4V113.24H247.859V96.98H250.139V98.6ZM256.839 102.44C256.839 101.68 256.679 101.027 256.359 100.48C256.053 99.92 255.639 99.5 255.119 99.22C254.613 98.9267 254.066 98.78 253.479 98.78C252.906 98.78 252.359 98.9267 251.839 99.22C251.333 99.5133 250.919 99.94 250.599 100.5C250.293 101.06 250.139 101.72 250.139 102.48C250.139 103.24 250.293 103.907 250.599 104.48C250.919 105.04 251.333 105.467 251.839 105.76C252.359 106.053 252.906 106.2 253.479 106.2C254.066 106.2 254.613 106.053 255.119 105.76C255.639 105.453 256.053 105.013 256.359 104.44C256.679 103.867 256.839 103.2 256.839 102.44ZM262.574 95.52C262.161 95.52 261.814 95.38 261.534 95.1C261.254 94.82 261.114 94.4733 261.114 94.06C261.114 93.6467 261.254 93.3 261.534 93.02C261.814 92.74 262.161 92.6 262.574 92.6C262.974 92.6 263.314 92.74 263.594 93.02C263.874 93.3 264.014 93.6467 264.014 94.06C264.014 94.4733 263.874 94.82 263.594 95.1C263.314 95.38 262.974 95.52 262.574 95.52ZM263.694 96.98V108H261.414V96.98H263.694ZM265.928 102.44C265.928 101.333 266.154 100.353 266.608 99.5C267.074 98.6467 267.701 97.9867 268.488 97.52C269.288 97.04 270.168 96.8 271.128 96.8C271.994 96.8 272.748 96.9733 273.388 97.32C274.041 97.6533 274.561 98.0733 274.948 98.58V96.98H277.248V108H274.948V106.36C274.561 106.88 274.034 107.313 273.368 107.66C272.701 108.007 271.941 108.18 271.088 108.18C270.141 108.18 269.274 107.94 268.488 107.46C267.701 106.967 267.074 106.287 266.608 105.42C266.154 104.54 265.928 103.547 265.928 102.44ZM274.948 102.48C274.948 101.72 274.788 101.06 274.468 100.5C274.161 99.94 273.754 99.5133 273.248 99.22C272.741 98.9267 272.194 98.78 271.608 98.78C271.021 98.78 270.474 98.9267 269.968 99.22C269.461 99.5 269.048 99.92 268.728 100.48C268.421 101.027 268.268 101.68 268.268 102.44C268.268 103.2 268.421 103.867 268.728 104.44C269.048 105.013 269.461 105.453 269.968 105.76C270.488 106.053 271.034 106.2 271.608 106.2C272.194 106.2 272.741 106.053 273.248 105.76C273.754 105.467 274.161 105.04 274.468 104.48C274.788 103.907 274.948 103.24 274.948 102.48ZM285.802 96.8C286.669 96.8 287.442 96.98 288.122 97.34C288.816 97.7 289.356 98.2333 289.742 98.94C290.129 99.6467 290.322 100.5 290.322 101.5V108H288.062V101.84C288.062 100.853 287.816 100.1 287.322 99.58C286.829 99.0467 286.156 98.78 285.302 98.78C284.449 98.78 283.769 99.0467 283.262 99.58C282.769 100.1 282.522 100.853 282.522 101.84V108H280.242V96.98H282.522V98.24C282.896 97.7867 283.369 97.4333 283.942 97.18C284.529 96.9267 285.149 96.8 285.802 96.8ZM298.01 108.18C296.97 108.18 296.03 107.947 295.19 107.48C294.35 107 293.69 106.333 293.21 105.48C292.73 104.613 292.49 103.613 292.49 102.48C292.49 101.36 292.737 100.367 293.23 99.5C293.724 98.6333 294.397 97.9667 295.25 97.5C296.104 97.0333 297.057 96.8 298.11 96.8C299.164 96.8 300.117 97.0333 300.97 97.5C301.824 97.9667 302.497 98.6333 302.99 99.5C303.484 100.367 303.73 101.36 303.73 102.48C303.73 103.6 303.477 104.593 302.97 105.46C302.464 106.327 301.77 107 300.89 107.48C300.024 107.947 299.064 108.18 298.01 108.18ZM298.01 106.2C298.597 106.2 299.144 106.06 299.65 105.78C300.17 105.5 300.59 105.08 300.91 104.52C301.23 103.96 301.39 103.28 301.39 102.48C301.39 101.68 301.237 101.007 300.93 100.46C300.624 99.9 300.217 99.48 299.71 99.2C299.204 98.92 298.657 98.78 298.07 98.78C297.484 98.78 296.937 98.92 296.43 99.2C295.937 99.48 295.544 99.9 295.25 100.46C294.957 101.007 294.81 101.68 294.81 102.48C294.81 103.667 295.11 104.587 295.71 105.24C296.324 105.88 297.09 106.2 298.01 106.2Z" fill="black"/>
<path id="MA&#195;&#142;TRE PIMS" d="M107.624 137.008V154H102.32V145.528L99.704 154H95.144L92.528 145.528V154H87.2V137.008H93.728L97.472 147.208L101.12 137.008H107.624ZM120.924 151.432H115.26L114.42 154H108.828L115.044 137.008H121.188L127.38 154H121.764L120.924 151.432ZM119.628 147.424L118.092 142.696L116.556 147.424H119.628ZM133.919 137.008V154H128.591V137.008H133.919ZM131.279 134.152L127.295 136.024V132.568L131.279 130.768L135.239 132.568V136.024L131.279 134.152ZM149.669 137.008V141.232H145.157V154H139.829V141.232H135.365V137.008H149.669ZM159.658 154L156.466 147.904H156.442V154H151.114V137.008H159.034C160.41 137.008 161.586 137.256 162.562 137.752C163.538 138.232 164.266 138.896 164.746 139.744C165.242 140.576 165.49 141.52 165.49 142.576C165.49 143.712 165.17 144.72 164.53 145.6C163.906 146.48 163.002 147.112 161.818 147.496L165.514 154H159.658ZM156.442 144.352H158.554C159.066 144.352 159.45 144.24 159.706 144.016C159.962 143.776 160.09 143.408 160.09 142.912C160.09 142.464 159.954 142.112 159.682 141.856C159.426 141.6 159.05 141.472 158.554 141.472H156.442V144.352ZM172.52 141.256V143.344H177.8V147.352H172.52V149.752H178.52V154H167.192V137.008H178.52V141.256H172.52ZM198.502 142.84C198.502 143.912 198.254 144.888 197.758 145.768C197.262 146.632 196.526 147.32 195.55 147.832C194.59 148.344 193.422 148.6 192.046 148.6H189.934V154H184.606V137.008H192.046C194.126 137.008 195.718 137.536 196.822 138.592C197.942 139.648 198.502 141.064 198.502 142.84ZM191.446 144.4C192.55 144.4 193.102 143.88 193.102 142.84C193.102 141.8 192.55 141.28 191.446 141.28H189.934V144.4H191.446ZM205.52 137.008V154H200.192V137.008H205.52ZM228.351 137.008V154H223.047V145.528L220.431 154H215.871L213.255 145.528V154H207.927V137.008H214.455L218.199 147.208L221.847 137.008H228.351ZM237.403 154.168C235.371 154.168 233.691 153.696 232.363 152.752C231.051 151.792 230.339 150.392 230.227 148.552H235.891C235.971 149.528 236.403 150.016 237.187 150.016C237.475 150.016 237.715 149.952 237.907 149.824C238.115 149.68 238.219 149.464 238.219 149.176C238.219 148.776 238.003 148.456 237.571 148.216C237.139 147.96 236.467 147.672 235.555 147.352C234.467 146.968 233.563 146.592 232.843 146.224C232.139 145.856 231.531 145.32 231.019 144.616C230.507 143.912 230.259 143.008 230.275 141.904C230.275 140.8 230.555 139.864 231.115 139.096C231.691 138.312 232.467 137.72 233.443 137.32C234.435 136.92 235.547 136.72 236.779 136.72C238.859 136.72 240.507 137.2 241.723 138.16C242.955 139.12 243.603 140.472 243.667 142.216H237.931C237.915 141.736 237.795 141.392 237.571 141.184C237.347 140.976 237.075 140.872 236.755 140.872C236.531 140.872 236.347 140.952 236.203 141.112C236.059 141.256 235.987 141.464 235.987 141.736C235.987 142.12 236.195 142.44 236.611 142.696C237.043 142.936 237.723 143.232 238.651 143.584C239.723 143.984 240.603 144.368 241.291 144.736C241.995 145.104 242.603 145.616 243.115 146.272C243.627 146.928 243.883 147.752 243.883 148.744C243.883 149.784 243.627 150.72 243.115 151.552C242.603 152.368 241.859 153.008 240.883 153.472C239.907 153.936 238.747 154.168 237.403 154.168Z" fill="black"/>
<g id="LE GRAND ARTHUR">
<mask id="path-7-outside-2_343_2341" maskUnits="userSpaceOnUse" x="85.5" y="182" width="189" height="18" fill="black">
<rect fill="white" x="85.5" y="182" width="189" height="18"/>
<path d="M91.2173 194.64H95.4973V198H86.7773V183.84H91.2173V194.64ZM101.335 187.38V189.12H105.735V192.46H101.335V194.46H106.335V198H96.8945V183.84H106.335V187.38H101.335ZM120.086 188.68C119.913 188.4 119.666 188.187 119.346 188.04C119.026 187.88 118.64 187.8 118.186 187.8C117.333 187.8 116.673 188.08 116.206 188.64C115.74 189.187 115.506 189.94 115.506 190.9C115.506 192.007 115.766 192.833 116.286 193.38C116.806 193.927 117.606 194.2 118.686 194.2C119.713 194.2 120.54 193.787 121.166 192.96H117.626V189.82H124.846V194.26C124.233 195.313 123.386 196.22 122.306 196.98C121.226 197.727 119.86 198.1 118.206 198.1C116.74 198.1 115.46 197.8 114.366 197.2C113.286 196.587 112.453 195.733 111.866 194.64C111.293 193.547 111.006 192.3 111.006 190.9C111.006 189.5 111.293 188.253 111.866 187.16C112.453 186.067 113.286 185.22 114.366 184.62C115.446 184.007 116.713 183.7 118.166 183.7C120.02 183.7 121.526 184.147 122.686 185.04C123.86 185.933 124.553 187.147 124.766 188.68H120.086ZM133.565 198L130.905 192.92H130.885V198H126.445V183.84H133.045C134.192 183.84 135.172 184.047 135.985 184.46C136.799 184.86 137.405 185.413 137.805 186.12C138.219 186.813 138.425 187.6 138.425 188.48C138.425 189.427 138.159 190.267 137.625 191C137.105 191.733 136.352 192.26 135.365 192.58L138.445 198H133.565ZM130.885 189.96H132.645C133.072 189.96 133.392 189.867 133.605 189.68C133.819 189.48 133.925 189.173 133.925 188.76C133.925 188.387 133.812 188.093 133.585 187.88C133.372 187.667 133.059 187.56 132.645 187.56H130.885V189.96ZM148.924 195.86H144.204L143.504 198H138.844L144.024 183.84H149.144L154.304 198H149.624L148.924 195.86ZM147.844 192.52L146.564 188.58L145.284 192.52H147.844ZM168.893 198H164.453L159.753 190.88V198H155.313V183.84H159.753L164.453 191.08V183.84H168.893V198ZM176.798 183.84C178.278 183.84 179.572 184.14 180.678 184.74C181.798 185.34 182.658 186.173 183.258 187.24C183.858 188.307 184.158 189.52 184.158 190.88C184.158 192.227 183.858 193.44 183.258 194.52C182.658 195.6 181.798 196.453 180.678 197.08C179.572 197.693 178.278 198 176.798 198H170.898V183.84H176.798ZM176.398 194.04C177.398 194.04 178.192 193.767 178.778 193.22C179.365 192.673 179.658 191.893 179.658 190.88C179.658 189.867 179.365 189.087 178.778 188.54C178.192 187.993 177.398 187.72 176.398 187.72H175.338V194.04H176.398ZM198.24 195.86H193.52L192.82 198H188.16L193.34 183.84H198.46L203.62 198H198.94L198.24 195.86ZM197.16 192.52L195.88 188.58L194.6 192.52H197.16ZM211.749 198L209.089 192.92H209.069V198H204.629V183.84H211.229C212.376 183.84 213.356 184.047 214.169 184.46C214.982 184.86 215.589 185.413 215.989 186.12C216.402 186.813 216.609 187.6 216.609 188.48C216.609 189.427 216.342 190.267 215.809 191C215.289 191.733 214.536 192.26 213.549 192.58L216.629 198H211.749ZM209.069 189.96H210.829C211.256 189.96 211.576 189.867 211.789 189.68C212.002 189.48 212.109 189.173 212.109 188.76C212.109 188.387 211.996 188.093 211.769 187.88C211.556 187.667 211.242 187.56 210.829 187.56H209.069V189.96ZM229.147 183.84V187.36H225.387V198H220.947V187.36H217.227V183.84H229.147ZM243.452 183.84V198H239.012V192.48H234.792V198H230.352V183.84H234.792V188.94H239.012V183.84H243.452ZM249.789 183.84V191.82C249.789 192.473 249.929 192.993 250.209 193.38C250.503 193.753 250.969 193.94 251.609 193.94C252.249 193.94 252.723 193.753 253.029 193.38C253.336 192.993 253.489 192.473 253.489 191.82V183.84H257.909V191.82C257.909 193.167 257.629 194.32 257.069 195.28C256.509 196.227 255.743 196.94 254.769 197.42C253.796 197.9 252.709 198.14 251.509 198.14C250.309 198.14 249.243 197.9 248.309 197.42C247.389 196.94 246.669 196.227 246.149 195.28C245.629 194.333 245.369 193.18 245.369 191.82V183.84H249.789ZM266.944 198L264.284 192.92H264.264V198H259.824V183.84H266.424C267.571 183.84 268.551 184.047 269.364 184.46C270.178 184.86 270.784 185.413 271.184 186.12C271.598 186.813 271.804 187.6 271.804 188.48C271.804 189.427 271.538 190.267 271.004 191C270.484 191.733 269.731 192.26 268.744 192.58L271.824 198H266.944ZM264.264 189.96H266.024C266.451 189.96 266.771 189.867 266.984 189.68C267.198 189.48 267.304 189.173 267.304 188.76C267.304 188.387 267.191 188.093 266.964 187.88C266.751 187.667 266.438 187.56 266.024 187.56H264.264V189.96Z"/>
</mask>
<path d="M91.2173 194.64H90.2173V195.64H91.2173V194.64ZM95.4973 194.64H96.4973V193.64H95.4973V194.64ZM95.4973 198V199H96.4973V198H95.4973ZM86.7773 198H85.7773V199H86.7773V198ZM86.7773 183.84V182.84H85.7773V183.84H86.7773ZM91.2173 183.84H92.2173V182.84H91.2173V183.84ZM91.2173 195.64H95.4973V193.64H91.2173V195.64ZM94.4973 194.64V198H96.4973V194.64H94.4973ZM95.4973 197H86.7773V199H95.4973V197ZM87.7773 198V183.84H85.7773V198H87.7773ZM86.7773 184.84H91.2173V182.84H86.7773V184.84ZM90.2173 183.84V194.64H92.2173V183.84H90.2173ZM101.335 187.38V186.38H100.335V187.38H101.335ZM101.335 189.12H100.335V190.12H101.335V189.12ZM105.735 189.12H106.735V188.12H105.735V189.12ZM105.735 192.46V193.46H106.735V192.46H105.735ZM101.335 192.46V191.46H100.335V192.46H101.335ZM101.335 194.46H100.335V195.46H101.335V194.46ZM106.335 194.46H107.335V193.46H106.335V194.46ZM106.335 198V199H107.335V198H106.335ZM96.8945 198H95.8945V199H96.8945V198ZM96.8945 183.84V182.84H95.8945V183.84H96.8945ZM106.335 183.84H107.335V182.84H106.335V183.84ZM106.335 187.38V188.38H107.335V187.38H106.335ZM100.335 187.38V189.12H102.335V187.38H100.335ZM101.335 190.12H105.735V188.12H101.335V190.12ZM104.735 189.12V192.46H106.735V189.12H104.735ZM105.735 191.46H101.335V193.46H105.735V191.46ZM100.335 192.46V194.46H102.335V192.46H100.335ZM101.335 195.46H106.335V193.46H101.335V195.46ZM105.335 194.46V198H107.335V194.46H105.335ZM106.335 197H96.8945V199H106.335V197ZM97.8945 198V183.84H95.8945V198H97.8945ZM96.8945 184.84H106.335V182.84H96.8945V184.84ZM105.335 183.84V187.38H107.335V183.84H105.335ZM106.335 186.38H101.335V188.38H106.335V186.38ZM120.086 188.68L119.236 189.206L119.529 189.68H120.086V188.68ZM119.346 188.04L118.899 188.934L118.914 188.942L118.93 188.949L119.346 188.04ZM116.206 188.64L116.967 189.289L116.974 189.28L116.206 188.64ZM116.286 193.38L115.562 194.069L116.286 193.38ZM121.166 192.96L121.963 193.564L123.179 191.96H121.166V192.96ZM117.626 192.96H116.626V193.96H117.626V192.96ZM117.626 189.82V188.82H116.626V189.82H117.626ZM124.846 189.82H125.846V188.82H124.846V189.82ZM124.846 194.26L125.71 194.763L125.846 194.53V194.26H124.846ZM122.306 196.98L122.875 197.803L122.882 197.798L122.306 196.98ZM114.366 197.2L113.872 198.07L113.879 198.073L113.885 198.077L114.366 197.2ZM111.866 194.64L110.981 195.104L110.985 195.113L111.866 194.64ZM111.866 187.16L110.985 186.687L110.981 186.696L111.866 187.16ZM114.366 184.62L114.852 185.494L114.86 185.49L114.366 184.62ZM122.686 185.04L122.076 185.832L122.08 185.836L122.686 185.04ZM124.766 188.68V189.68H125.915L125.757 188.542L124.766 188.68ZM120.937 188.154C120.652 187.694 120.249 187.354 119.763 187.131L118.93 188.949C119.083 189.02 119.174 189.106 119.236 189.206L120.937 188.154ZM119.793 187.146C119.303 186.9 118.754 186.8 118.186 186.8V188.8C118.525 188.8 118.75 188.86 118.899 188.934L119.793 187.146ZM118.186 186.8C117.092 186.8 116.128 187.172 115.438 188L116.974 189.28C117.218 188.988 117.573 188.8 118.186 188.8V186.8ZM115.446 187.991C114.779 188.772 114.506 189.783 114.506 190.9H116.506C116.506 190.097 116.7 189.602 116.967 189.289L115.446 187.991ZM114.506 190.9C114.506 192.145 114.797 193.266 115.562 194.069L117.011 192.691C116.735 192.401 116.506 191.869 116.506 190.9H114.506ZM115.562 194.069C116.34 194.887 117.452 195.2 118.686 195.2V193.2C117.76 193.2 117.273 192.966 117.011 192.691L115.562 194.069ZM118.686 195.2C120.03 195.2 121.15 194.637 121.963 193.564L120.369 192.356C119.929 192.936 119.396 193.2 118.686 193.2V195.2ZM121.166 191.96H117.626V193.96H121.166V191.96ZM118.626 192.96V189.82H116.626V192.96H118.626ZM117.626 190.82H124.846V188.82H117.626V190.82ZM123.846 189.82V194.26H125.846V189.82H123.846ZM123.982 193.757C123.447 194.676 122.703 195.478 121.731 196.162L122.882 197.798C124.07 196.962 125.019 195.951 125.71 194.763L123.982 193.757ZM121.738 196.157C120.863 196.762 119.709 197.1 118.206 197.1V199.1C120.01 199.1 121.589 198.692 122.875 197.803L121.738 196.157ZM118.206 197.1C116.878 197.1 115.769 196.829 114.847 196.323L113.885 198.077C115.15 198.771 116.601 199.1 118.206 199.1V197.1ZM114.86 196.33C113.944 195.81 113.245 195.094 112.747 194.167L110.985 195.113C111.661 196.372 112.629 197.363 113.872 198.07L114.86 196.33ZM112.752 194.176C112.263 193.244 112.006 192.16 112.006 190.9H110.006C110.006 192.44 110.323 193.85 110.981 195.104L112.752 194.176ZM112.006 190.9C112.006 189.64 112.263 188.556 112.752 187.624L110.981 186.696C110.323 187.95 110.006 189.36 110.006 190.9H112.006ZM112.747 187.633C113.244 186.708 113.94 186.001 114.852 185.494L113.881 183.746C112.632 184.439 111.662 185.426 110.985 186.687L112.747 187.633ZM114.86 185.49C115.766 184.975 116.856 184.7 118.166 184.7V182.7C116.569 182.7 115.127 183.038 113.872 183.75L114.86 185.49ZM118.166 184.7C119.858 184.7 121.133 185.106 122.076 185.832L123.296 184.248C121.92 183.187 120.181 182.7 118.166 182.7V184.7ZM122.08 185.836C123.032 186.56 123.597 187.531 123.776 188.818L125.757 188.542C125.509 186.762 124.687 185.306 123.292 184.244L122.08 185.836ZM124.766 187.68H120.086V189.68H124.766V187.68ZM133.565 198L132.679 198.464L132.96 199H133.565V198ZM130.905 192.92L131.791 192.456L131.51 191.92H130.905V192.92ZM130.885 192.92V191.92H129.885V192.92H130.885ZM130.885 198V199H131.885V198H130.885ZM126.445 198H125.445V199H126.445V198ZM126.445 183.84V182.84H125.445V183.84H126.445ZM135.985 184.46L135.532 185.352L135.544 185.357L135.985 184.46ZM137.805 186.12L136.935 186.613L136.941 186.622L136.946 186.632L137.805 186.12ZM137.625 191L136.817 190.412L136.81 190.422L137.625 191ZM135.365 192.58L135.057 191.629L133.89 192.007L134.496 193.074L135.365 192.58ZM138.445 198V199H140.164L139.315 197.506L138.445 198ZM130.885 189.96H129.885V190.96H130.885V189.96ZM133.605 189.68L134.264 190.433L134.277 190.421L134.289 190.41L133.605 189.68ZM133.585 187.88L132.878 188.587L132.889 188.598L132.9 188.608L133.585 187.88ZM130.885 187.56V186.56H129.885V187.56H130.885ZM134.451 197.536L131.791 192.456L130.019 193.384L132.679 198.464L134.451 197.536ZM130.905 191.92H130.885V193.92H130.905V191.92ZM129.885 192.92V198H131.885V192.92H129.885ZM130.885 197H126.445V199H130.885V197ZM127.445 198V183.84H125.445V198H127.445ZM126.445 184.84H133.045V182.84H126.445V184.84ZM133.045 184.84C134.074 184.84 134.891 185.025 135.532 185.351L136.438 183.569C135.453 183.068 134.31 182.84 133.045 182.84V184.84ZM135.544 185.357C136.199 185.679 136.645 186.101 136.935 186.613L138.676 185.627C138.165 184.726 137.399 184.041 136.427 183.563L135.544 185.357ZM136.946 186.632C137.259 187.157 137.425 187.763 137.425 188.48H139.425C139.425 187.437 139.178 186.47 138.664 185.608L136.946 186.632ZM137.425 188.48C137.425 189.225 137.22 189.857 136.817 190.412L138.434 191.588C139.097 190.676 139.425 189.628 139.425 188.48H137.425ZM136.81 190.422C136.433 190.953 135.871 191.365 135.057 191.629L135.674 193.531C136.833 193.155 137.778 192.514 138.441 191.578L136.81 190.422ZM134.496 193.074L137.576 198.494L139.315 197.506L136.235 192.086L134.496 193.074ZM138.445 197H133.565V199H138.445V197ZM130.885 190.96H132.645V188.96H130.885V190.96ZM132.645 190.96C133.196 190.96 133.795 190.842 134.264 190.433L132.947 188.927C132.967 188.909 132.97 188.917 132.925 188.93C132.878 188.944 132.789 188.96 132.645 188.96V190.96ZM134.289 190.41C134.776 189.953 134.925 189.333 134.925 188.76H132.925C132.925 188.884 132.909 188.948 132.901 188.971C132.895 188.989 132.897 188.973 132.921 188.95L134.289 190.41ZM134.925 188.76C134.925 188.17 134.738 187.591 134.271 187.152L132.9 188.608C132.903 188.611 132.904 188.612 132.908 188.62C132.912 188.633 132.925 188.674 132.925 188.76H134.925ZM134.292 187.173C133.831 186.711 133.223 186.56 132.645 186.56V188.56C132.768 188.56 132.837 188.576 132.868 188.587C132.894 188.596 132.89 188.599 132.878 188.587L134.292 187.173ZM132.645 186.56H130.885V188.56H132.645V186.56ZM129.885 187.56V189.96H131.885V187.56H129.885ZM148.924 195.86L149.874 195.549L149.649 194.86H148.924V195.86ZM144.204 195.86V194.86H143.479L143.253 195.549L144.204 195.86ZM143.504 198V199H144.229L144.454 198.311L143.504 198ZM138.844 198L137.905 197.656L137.413 199H138.844V198ZM144.024 183.84V182.84H143.325L143.085 183.496L144.024 183.84ZM149.144 183.84L150.083 183.498L149.844 182.84H149.144V183.84ZM154.304 198V199H155.732L155.243 197.658L154.304 198ZM149.624 198L148.673 198.311L148.899 199H149.624V198ZM147.844 192.52V193.52H149.22L148.795 192.211L147.844 192.52ZM146.564 188.58L147.515 188.271L146.564 185.344L145.613 188.271L146.564 188.58ZM145.284 192.52L144.333 192.211L143.907 193.52H145.284V192.52ZM148.924 194.86H144.204V196.86H148.924V194.86ZM143.253 195.549L142.553 197.689L144.454 198.311L145.154 196.171L143.253 195.549ZM143.504 197H138.844V199H143.504V197ZM139.783 198.344L144.963 184.184L143.085 183.496L137.905 197.656L139.783 198.344ZM144.024 184.84H149.144V182.84H144.024V184.84ZM148.204 184.182L153.364 198.342L155.243 197.658L150.083 183.498L148.204 184.182ZM154.304 197H149.624V199H154.304V197ZM150.574 197.689L149.874 195.549L147.973 196.171L148.673 198.311L150.574 197.689ZM148.795 192.211L147.515 188.271L145.613 188.889L146.893 192.829L148.795 192.211ZM145.613 188.271L144.333 192.211L146.235 192.829L147.515 188.889L145.613 188.271ZM145.284 193.52H147.844V191.52H145.284V193.52ZM168.893 198V199H169.893V198H168.893ZM164.452 198L163.618 198.551L163.914 199H164.452V198ZM159.753 190.88L160.587 190.329L158.753 187.55V190.88H159.753ZM159.753 198V199H160.753V198H159.753ZM155.312 198H154.312V199H155.312V198ZM155.312 183.84V182.84H154.312V183.84H155.312ZM159.753 183.84L160.591 183.295L160.296 182.84H159.753V183.84ZM164.452 191.08L163.614 191.625L165.452 194.457V191.08H164.452ZM164.452 183.84V182.84H163.452V183.84H164.452ZM168.893 183.84H169.893V182.84H168.893V183.84ZM168.893 197H164.452V199H168.893V197ZM165.287 197.449L160.587 190.329L158.918 191.431L163.618 198.551L165.287 197.449ZM158.753 190.88V198H160.753V190.88H158.753ZM159.753 197H155.312V199H159.753V197ZM156.312 198V183.84H154.312V198H156.312ZM155.312 184.84H159.753V182.84H155.312V184.84ZM158.914 184.384L163.614 191.625L165.291 190.535L160.591 183.295L158.914 184.384ZM165.452 191.08V183.84H163.452V191.08H165.452ZM164.452 184.84H168.893V182.84H164.452V184.84ZM167.893 183.84V198H169.893V183.84H167.893ZM180.678 184.74L180.202 185.619L180.206 185.621L180.678 184.74ZM183.258 187.24L184.13 186.75L183.258 187.24ZM183.258 194.52L184.133 195.006L183.258 194.52ZM180.678 197.08L181.163 197.955L181.167 197.953L180.678 197.08ZM170.898 198H169.898V199H170.898V198ZM170.898 183.84V182.84H169.898V183.84H170.898ZM178.778 193.22L179.46 193.952L178.778 193.22ZM178.778 188.54L179.46 187.808L178.778 188.54ZM175.338 187.72V186.72H174.338V187.72H175.338ZM175.338 194.04H174.338V195.04H175.338V194.04ZM176.798 184.84C178.141 184.84 179.265 185.111 180.202 185.619L181.155 183.861C179.878 183.169 178.416 182.84 176.798 182.84V184.84ZM180.206 185.621C181.165 186.135 181.884 186.836 182.387 187.73L184.13 186.75C183.433 185.511 182.432 184.545 181.151 183.859L180.206 185.621ZM182.387 187.73C182.894 188.631 183.158 189.672 183.158 190.88H185.158C185.158 189.368 184.823 187.982 184.13 186.75L182.387 187.73ZM183.158 190.88C183.158 192.072 182.894 193.116 182.384 194.034L184.133 195.006C184.822 193.764 185.158 192.381 185.158 190.88H183.158ZM182.384 194.034C181.878 194.946 181.155 195.668 180.19 196.207L181.167 197.953C182.442 197.239 183.439 196.254 184.133 195.006L182.384 194.034ZM180.194 196.205C179.259 196.723 178.138 197 176.798 197V199C178.419 199 179.885 198.663 181.163 197.955L180.194 196.205ZM176.798 197H170.898V199H176.798V197ZM171.898 198V183.84H169.898V198H171.898ZM170.898 184.84H176.798V182.84H170.898V184.84ZM176.398 195.04C177.586 195.04 178.646 194.711 179.46 193.952L178.097 192.488C177.738 192.823 177.211 193.04 176.398 193.04V195.04ZM179.46 193.952C180.301 193.169 180.658 192.093 180.658 190.88H178.658C178.658 191.694 178.43 192.178 178.097 192.488L179.46 193.952ZM180.658 190.88C180.658 189.667 180.301 188.591 179.46 187.808L178.097 189.272C178.43 189.582 178.658 190.066 178.658 190.88H180.658ZM179.46 187.808C178.646 187.049 177.586 186.72 176.398 186.72V188.72C177.211 188.72 177.738 188.937 178.097 189.272L179.46 187.808ZM176.398 186.72H175.338V188.72H176.398V186.72ZM174.338 187.72V194.04H176.338V187.72H174.338ZM175.338 195.04H176.398V193.04H175.338V195.04ZM198.24 195.86L199.191 195.549L198.965 194.86H198.24V195.86ZM193.52 195.86V194.86H192.795L192.57 195.549L193.52 195.86ZM192.82 198V199H193.545L193.771 198.311L192.82 198ZM188.16 198L187.221 197.656L186.73 199H188.16V198ZM193.34 183.84V182.84H192.641L192.401 183.496L193.34 183.84ZM198.46 183.84L199.4 183.498L199.16 182.84H198.46V183.84ZM203.62 198V199H205.049L204.56 197.658L203.62 198ZM198.94 198L197.99 198.311L198.215 199H198.94V198ZM197.16 192.52V193.52H198.536L198.111 192.211L197.16 192.52ZM195.88 188.58L196.831 188.271L195.88 185.344L194.929 188.271L195.88 188.58ZM194.6 192.52L193.649 192.211L193.224 193.52H194.6V192.52ZM198.24 194.86H193.52V196.86H198.24V194.86ZM192.57 195.549L191.87 197.689L193.771 198.311L194.471 196.171L192.57 195.549ZM192.82 197H188.16V199H192.82V197ZM189.099 198.344L194.279 184.184L192.401 183.496L187.221 197.656L189.099 198.344ZM193.34 184.84H198.46V182.84H193.34V184.84ZM197.521 184.182L202.681 198.342L204.56 197.658L199.4 183.498L197.521 184.182ZM203.62 197H198.94V199H203.62V197ZM199.891 197.689L199.191 195.549L197.29 196.171L197.99 198.311L199.891 197.689ZM198.111 192.211L196.831 188.271L194.929 188.889L196.209 192.829L198.111 192.211ZM194.929 188.271L193.649 192.211L195.551 192.829L196.831 188.889L194.929 188.271ZM194.6 193.52H197.16V191.52H194.6V193.52ZM211.749 198L210.863 198.464L211.144 199H211.749V198ZM209.089 192.92L209.975 192.456L209.694 191.92H209.089V192.92ZM209.069 192.92V191.92H208.069V192.92H209.069ZM209.069 198V199H210.069V198H209.069ZM204.629 198H203.629V199H204.629V198ZM204.629 183.84V182.84H203.629V183.84H204.629ZM214.169 184.46L213.716 185.352L213.728 185.357L214.169 184.46ZM215.989 186.12L215.119 186.613L215.124 186.622L215.13 186.632L215.989 186.12ZM215.809 191L215 190.412L214.993 190.422L215.809 191ZM213.549 192.58L213.24 191.629L212.073 192.007L212.679 193.074L213.549 192.58ZM216.629 198V199H218.347L217.498 197.506L216.629 198ZM209.069 189.96H208.069V190.96H209.069V189.96ZM211.789 189.68L212.447 190.433L212.46 190.421L212.473 190.41L211.789 189.68ZM211.769 187.88L211.062 188.587L211.073 188.598L211.084 188.608L211.769 187.88ZM209.069 187.56V186.56H208.069V187.56H209.069ZM212.635 197.536L209.975 192.456L208.203 193.384L210.863 198.464L212.635 197.536ZM209.089 191.92H209.069V193.92H209.089V191.92ZM208.069 192.92V198H210.069V192.92H208.069ZM209.069 197H204.629V199H209.069V197ZM205.629 198V183.84H203.629V198H205.629ZM204.629 184.84H211.229V182.84H204.629V184.84ZM211.229 184.84C212.258 184.84 213.074 185.025 213.716 185.351L214.622 183.569C213.637 183.068 212.494 182.84 211.229 182.84V184.84ZM213.728 185.357C214.382 185.679 214.829 186.101 215.119 186.613L216.859 185.627C216.349 184.726 215.582 184.041 214.61 183.563L213.728 185.357ZM215.13 186.632C215.443 187.157 215.609 187.763 215.609 188.48H217.609C217.609 187.437 217.362 186.47 216.848 185.608L215.13 186.632ZM215.609 188.48C215.609 189.225 215.403 189.857 215 190.412L216.618 191.588C217.281 190.676 217.609 189.628 217.609 188.48H215.609ZM214.993 190.422C214.616 190.953 214.055 191.365 213.24 191.629L213.857 193.531C215.016 193.155 215.962 192.514 216.625 191.578L214.993 190.422ZM212.679 193.074L215.759 198.494L217.498 197.506L214.418 192.086L212.679 193.074ZM216.629 197H211.749V199H216.629V197ZM209.069 190.96H210.829V188.96H209.069V190.96ZM210.829 190.96C211.379 190.96 211.979 190.842 212.447 190.433L211.13 188.927C211.151 188.909 211.154 188.917 211.109 188.93C211.061 188.944 210.973 188.96 210.829 188.96V190.96ZM212.473 190.41C212.96 189.953 213.109 189.333 213.109 188.76H211.109C211.109 188.884 211.093 188.948 211.084 188.971C211.078 188.989 211.081 188.973 211.105 188.95L212.473 190.41ZM213.109 188.76C213.109 188.17 212.921 187.591 212.454 187.152L211.084 188.608C211.087 188.611 211.088 188.612 211.091 188.62C211.096 188.633 211.109 188.674 211.109 188.76H213.109ZM212.476 187.173C212.014 186.711 211.407 186.56 210.829 186.56V188.56C210.952 188.56 211.021 188.576 211.052 188.587C211.078 188.596 211.074 188.599 211.062 188.587L212.476 187.173ZM210.829 186.56H209.069V188.56H210.829V186.56ZM208.069 187.56V189.96H210.069V187.56H208.069ZM229.147 183.84H230.147V182.84H229.147V183.84ZM229.147 187.36V188.36H230.147V187.36H229.147ZM225.387 187.36V186.36H224.387V187.36H225.387ZM225.387 198V199H226.387V198H225.387ZM220.947 198H219.947V199H220.947V198ZM220.947 187.36H221.947V186.36H220.947V187.36ZM217.227 187.36H216.227V188.36H217.227V187.36ZM217.227 183.84V182.84H216.227V183.84H217.227ZM228.147 183.84V187.36H230.147V183.84H228.147ZM229.147 186.36H225.387V188.36H229.147V186.36ZM224.387 187.36V198H226.387V187.36H224.387ZM225.387 197H220.947V199H225.387V197ZM221.947 198V187.36H219.947V198H221.947ZM220.947 186.36H217.227V188.36H220.947V186.36ZM218.227 187.36V183.84H216.227V187.36H218.227ZM217.227 184.84H229.147V182.84H217.227V184.84ZM243.452 183.84H244.452V182.84H243.452V183.84ZM243.452 198V199H244.452V198H243.452ZM239.012 198H238.012V199H239.012V198ZM239.012 192.48H240.012V191.48H239.012V192.48ZM234.792 192.48V191.48H233.792V192.48H234.792ZM234.792 198V199H235.792V198H234.792ZM230.352 198H229.352V199H230.352V198ZM230.352 183.84V182.84H229.352V183.84H230.352ZM234.792 183.84H235.792V182.84H234.792V183.84ZM234.792 188.94H233.792V189.94H234.792V188.94ZM239.012 188.94V189.94H240.012V188.94H239.012ZM239.012 183.84V182.84H238.012V183.84H239.012ZM242.452 183.84V198H244.452V183.84H242.452ZM243.452 197H239.012V199H243.452V197ZM240.012 198V192.48H238.012V198H240.012ZM239.012 191.48H234.792V193.48H239.012V191.48ZM233.792 192.48V198H235.792V192.48H233.792ZM234.792 197H230.352V199H234.792V197ZM231.352 198V183.84H229.352V198H231.352ZM230.352 184.84H234.792V182.84H230.352V184.84ZM233.792 183.84V188.94H235.792V183.84H233.792ZM234.792 189.94H239.012V187.94H234.792V189.94ZM240.012 188.94V183.84H238.012V188.94H240.012ZM239.012 184.84H243.452V182.84H239.012V184.84ZM249.789 183.84H250.789V182.84H249.789V183.84ZM250.209 193.38L249.399 193.967L249.411 193.982L249.423 193.998L250.209 193.38ZM253.029 193.38L253.802 194.015L253.807 194.008L253.813 194.001L253.029 193.38ZM253.489 183.84V182.84H252.489V183.84H253.489ZM257.909 183.84H258.909V182.84H257.909V183.84ZM257.069 195.28L257.93 195.789L257.933 195.784L257.069 195.28ZM254.769 197.42L255.212 198.317L254.769 197.42ZM248.309 197.42L247.847 198.307L247.852 198.309L248.309 197.42ZM246.149 195.28L245.273 195.761L246.149 195.28ZM245.369 183.84V182.84H244.369V183.84H245.369ZM248.789 183.84V191.82H250.789V183.84H248.789ZM248.789 191.82C248.789 192.608 248.958 193.357 249.399 193.967L251.019 192.793C250.901 192.63 250.789 192.339 250.789 191.82H248.789ZM249.423 193.998C249.967 194.69 250.777 194.94 251.609 194.94V192.94C251.162 192.94 251.038 192.817 250.996 192.762L249.423 193.998ZM251.609 194.94C252.445 194.94 253.248 194.689 253.802 194.015L252.257 192.745C252.197 192.818 252.054 192.94 251.609 192.94V194.94ZM253.813 194.001C254.299 193.388 254.489 192.626 254.489 191.82H252.489C252.489 192.321 252.373 192.599 252.246 192.759L253.813 194.001ZM254.489 191.82V183.84H252.489V191.82H254.489ZM253.489 184.84H257.909V182.84H253.489V184.84ZM256.909 183.84V191.82H258.909V183.84H256.909ZM256.909 191.82C256.909 193.027 256.659 193.998 256.205 194.776L257.933 195.784C258.599 194.642 258.909 193.306 258.909 191.82H256.909ZM256.209 194.771C255.746 195.553 255.124 196.13 254.327 196.523L255.212 198.317C256.361 197.75 257.272 196.901 257.93 195.789L256.209 194.771ZM254.327 196.523C253.505 196.928 252.572 197.14 251.509 197.14V199.14C252.846 199.14 254.087 198.872 255.212 198.317L254.327 196.523ZM251.509 197.14C250.445 197.14 249.539 196.928 248.767 196.531L247.852 198.309C248.946 198.872 250.173 199.14 251.509 199.14V197.14ZM248.772 196.533C248.034 196.149 247.455 195.58 247.026 194.799L245.273 195.761C245.884 196.874 246.744 197.731 247.847 198.307L248.772 196.533ZM247.026 194.799C246.605 194.033 246.369 193.054 246.369 191.82H244.369C244.369 193.306 244.653 194.634 245.273 195.761L247.026 194.799ZM246.369 191.82V183.84H244.369V191.82H246.369ZM245.369 184.84H249.789V182.84H245.369V184.84ZM266.944 198L266.058 198.464L266.339 199H266.944V198ZM264.284 192.92L265.17 192.456L264.889 191.92H264.284V192.92ZM264.264 192.92V191.92H263.264V192.92H264.264ZM264.264 198V199H265.264V198H264.264ZM259.824 198H258.824V199H259.824V198ZM259.824 183.84V182.84H258.824V183.84H259.824ZM269.364 184.46L268.911 185.352L268.923 185.357L269.364 184.46ZM271.184 186.12L270.314 186.613L270.32 186.622L270.325 186.632L271.184 186.12ZM271.004 191L270.195 190.412L270.188 190.422L271.004 191ZM268.744 192.58L268.436 191.629L267.269 192.007L267.875 193.074L268.744 192.58ZM271.824 198V199H273.543L272.694 197.506L271.824 198ZM264.264 189.96H263.264V190.96H264.264V189.96ZM266.984 189.68L267.643 190.433L267.656 190.421L267.668 190.41L266.984 189.68ZM266.964 187.88L266.257 188.587L266.268 188.598L266.279 188.608L266.964 187.88ZM264.264 187.56V186.56H263.264V187.56H264.264ZM267.83 197.536L265.17 192.456L263.398 193.384L266.058 198.464L267.83 197.536ZM264.284 191.92H264.264V193.92H264.284V191.92ZM263.264 192.92V198H265.264V192.92H263.264ZM264.264 197H259.824V199H264.264V197ZM260.824 198V183.84H258.824V198H260.824ZM259.824 184.84H266.424V182.84H259.824V184.84ZM266.424 184.84C267.453 184.84 268.27 185.025 268.911 185.351L269.817 183.569C268.832 183.068 267.689 182.84 266.424 182.84V184.84ZM268.923 185.357C269.578 185.679 270.024 186.101 270.314 186.613L272.054 185.627C271.544 184.726 270.777 184.041 269.806 183.563L268.923 185.357ZM270.325 186.632C270.638 187.157 270.804 187.763 270.804 188.48H272.804C272.804 187.437 272.557 186.47 272.043 185.608L270.325 186.632ZM270.804 188.48C270.804 189.225 270.599 189.857 270.195 190.412L271.813 191.588C272.476 190.676 272.804 189.628 272.804 188.48H270.804ZM270.188 190.422C269.812 190.953 269.25 191.365 268.436 191.629L269.053 193.531C270.211 193.155 271.157 192.514 271.82 191.578L270.188 190.422ZM267.875 193.074L270.955 198.494L272.694 197.506L269.614 192.086L267.875 193.074ZM271.824 197H266.944V199H271.824V197ZM264.264 190.96H266.024V188.96H264.264V190.96ZM266.024 190.96C266.575 190.96 267.174 190.842 267.643 190.433L266.326 188.927C266.346 188.909 266.349 188.917 266.304 188.93C266.256 188.944 266.168 188.96 266.024 188.96V190.96ZM267.668 190.41C268.155 189.953 268.304 189.333 268.304 188.76H266.304C266.304 188.884 266.288 188.948 266.28 188.971C266.274 188.989 266.276 188.973 266.3 188.95L267.668 190.41ZM268.304 188.76C268.304 188.17 268.117 187.591 267.65 187.152L266.279 188.608C266.282 188.611 266.283 188.612 266.286 188.62C266.291 188.633 266.304 188.674 266.304 188.76H268.304ZM267.671 187.173C267.21 186.711 266.602 186.56 266.024 186.56V188.56C266.147 188.56 266.216 188.576 266.247 188.587C266.273 188.596 266.269 188.599 266.257 188.587L267.671 187.173ZM266.024 186.56H264.264V188.56H266.024V186.56ZM263.264 187.56V189.96H265.264V187.56H263.264Z" fill="black" mask="url(#path-7-outside-2_343_2341)"/>
</g>
<path id="RAPETOU GANG" d="M55.54 241L53.14 236.83H51.835V241H50.125V230.575H53.725C54.525 230.575 55.2 230.715 55.75 230.995C56.31 231.275 56.725 231.65 56.995 232.12C57.275 232.59 57.415 233.115 57.415 233.695C57.415 234.375 57.215 234.995 56.815 235.555C56.425 236.105 55.82 236.48 55 236.68L57.58 241H55.54ZM51.835 235.465H53.725C54.365 235.465 54.845 235.305 55.165 234.985C55.495 234.665 55.66 234.235 55.66 233.695C55.66 233.155 55.5 232.735 55.18 232.435C54.86 232.125 54.375 231.97 53.725 231.97H51.835V235.465ZM65.8875 238.87H61.5225L60.7725 241H58.9875L62.7225 230.56H64.7025L68.4375 241H66.6375L65.8875 238.87ZM65.4075 237.475L63.7125 232.63L62.0025 237.475H65.4075ZM77.3515 233.68C77.3515 234.21 77.2265 234.71 76.9765 235.18C76.7265 235.65 76.3265 236.035 75.7765 236.335C75.2265 236.625 74.5215 236.77 73.6615 236.77H71.7715V241H70.0615V230.575H73.6615C74.4615 230.575 75.1365 230.715 75.6865 230.995C76.2465 231.265 76.6615 231.635 76.9315 232.105C77.2115 232.575 77.3515 233.1 77.3515 233.68ZM73.6615 235.375C74.3115 235.375 74.7965 235.23 75.1165 234.94C75.4365 234.64 75.5965 234.22 75.5965 233.68C75.5965 232.54 74.9515 231.97 73.6615 231.97H71.7715V235.375H73.6615ZM80.6924 231.955V235.015H84.2924V236.41H80.6924V239.605H84.7424V241H78.9824V230.56H84.7424V231.955H80.6924ZM93.5836 230.575V231.97H90.8086V241H89.0986V231.97H86.3086V230.575H93.5836ZM100.07 241.105C99.1004 241.105 98.2054 240.88 97.3854 240.43C96.5754 239.97 95.9304 239.335 95.4504 238.525C94.9804 237.705 94.7454 236.785 94.7454 235.765C94.7454 234.745 94.9804 233.83 95.4504 233.02C95.9304 232.21 96.5754 231.58 97.3854 231.13C98.2054 230.67 99.1004 230.44 100.07 230.44C101.05 230.44 101.945 230.67 102.755 231.13C103.575 231.58 104.22 232.21 104.69 233.02C105.16 233.83 105.395 234.745 105.395 235.765C105.395 236.785 105.16 237.705 104.69 238.525C104.22 239.335 103.575 239.97 102.755 240.43C101.945 240.88 101.05 241.105 100.07 241.105ZM100.07 239.62C100.76 239.62 101.375 239.465 101.915 239.155C102.455 238.835 102.875 238.385 103.175 237.805C103.485 237.215 103.64 236.535 103.64 235.765C103.64 234.995 103.485 234.32 103.175 233.74C102.875 233.16 102.455 232.715 101.915 232.405C101.375 232.095 100.76 231.94 100.07 231.94C99.3804 231.94 98.7654 232.095 98.2254 232.405C97.6854 232.715 97.2604 233.16 96.9504 233.74C96.6504 234.32 96.5004 234.995 96.5004 235.765C96.5004 236.535 96.6504 237.215 96.9504 237.805C97.2604 238.385 97.6854 238.835 98.2254 239.155C98.7654 239.465 99.3804 239.62 100.07 239.62ZM108.773 230.575V237.22C108.773 238.01 108.978 238.605 109.388 239.005C109.808 239.405 110.388 239.605 111.128 239.605C111.878 239.605 112.458 239.405 112.868 239.005C113.288 238.605 113.498 238.01 113.498 237.22V230.575H115.208V237.19C115.208 238.04 115.023 238.76 114.653 239.35C114.283 239.94 113.788 240.38 113.168 240.67C112.548 240.96 111.863 241.105 111.113 241.105C110.363 241.105 109.678 240.96 109.058 240.67C108.448 240.38 107.963 239.94 107.603 239.35C107.243 238.76 107.063 238.04 107.063 237.19V230.575H108.773ZM128.876 233.575C128.606 233.055 128.231 232.665 127.751 232.405C127.271 232.135 126.716 232 126.086 232C125.396 232 124.781 232.155 124.241 232.465C123.701 232.775 123.276 233.215 122.966 233.785C122.666 234.355 122.516 235.015 122.516 235.765C122.516 236.515 122.666 237.18 122.966 237.76C123.276 238.33 123.701 238.77 124.241 239.08C124.781 239.39 125.396 239.545 126.086 239.545C127.016 239.545 127.771 239.285 128.351 238.765C128.931 238.245 129.286 237.54 129.416 236.65H125.501V235.285H131.246V236.62C131.136 237.43 130.846 238.175 130.376 238.855C129.916 239.535 129.311 240.08 128.561 240.49C127.821 240.89 126.996 241.09 126.086 241.09C125.106 241.09 124.211 240.865 123.401 240.415C122.591 239.955 121.946 239.32 121.466 238.51C120.996 237.7 120.761 236.785 120.761 235.765C120.761 234.745 120.996 233.83 121.466 233.02C121.946 232.21 122.591 231.58 123.401 231.13C124.221 230.67 125.116 230.44 126.086 230.44C127.196 230.44 128.181 230.715 129.041 231.265C129.911 231.805 130.541 232.575 130.931 233.575H128.876ZM139.218 238.87H134.853L134.103 241H132.318L136.053 230.56H138.033L141.768 241H139.968L139.218 238.87ZM138.738 237.475L137.043 232.63L135.333 237.475H138.738ZM151.957 241H150.247L145.102 233.215V241H143.392V230.56H145.102L150.247 238.33V230.56H151.957V241ZM161.747 233.575C161.477 233.055 161.102 232.665 160.622 232.405C160.142 232.135 159.587 232 158.957 232C158.267 232 157.652 232.155 157.112 232.465C156.572 232.775 156.147 233.215 155.837 233.785C155.537 234.355 155.387 235.015 155.387 235.765C155.387 236.515 155.537 237.18 155.837 237.76C156.147 238.33 156.572 238.77 157.112 239.08C157.652 239.39 158.267 239.545 158.957 239.545C159.887 239.545 160.642 239.285 161.222 238.765C161.802 238.245 162.157 237.54 162.287 236.65H158.372V235.285H164.117V236.62C164.007 237.43 163.717 238.175 163.247 238.855C162.787 239.535 162.182 240.08 161.432 240.49C160.692 240.89 159.867 241.09 158.957 241.09C157.977 241.09 157.082 240.865 156.272 240.415C155.462 239.955 154.817 239.32 154.337 238.51C153.867 237.7 153.632 236.785 153.632 235.765C153.632 234.745 153.867 233.83 154.337 233.02C154.817 232.21 155.462 231.58 156.272 231.13C157.092 230.67 157.987 230.44 158.957 230.44C160.067 230.44 161.052 230.715 161.912 231.265C162.782 231.805 163.412 232.575 163.802 233.575H161.747Z" fill="black"/>
<path id="Johnny Hallit&#195;&#169;" d="M197.08 229.1V239.12C197.08 240.36 196.7 241.34 195.94 242.06C195.193 242.78 194.207 243.14 192.98 243.14C191.753 243.14 190.76 242.78 190 242.06C189.253 241.34 188.88 240.36 188.88 239.12H191.18C191.193 239.733 191.347 240.22 191.64 240.58C191.947 240.94 192.393 241.12 192.98 241.12C193.567 241.12 194.013 240.94 194.32 240.58C194.627 240.207 194.78 239.72 194.78 239.12V229.1H197.08ZM203.569 243.18C202.529 243.18 201.589 242.947 200.749 242.48C199.909 242 199.249 241.333 198.769 240.48C198.289 239.613 198.049 238.613 198.049 237.48C198.049 236.36 198.296 235.367 198.789 234.5C199.282 233.633 199.956 232.967 200.809 232.5C201.662 232.033 202.616 231.8 203.669 231.8C204.722 231.8 205.676 232.033 206.529 232.5C207.382 232.967 208.056 233.633 208.549 234.5C209.042 235.367 209.289 236.36 209.289 237.48C209.289 238.6 209.036 239.593 208.529 240.46C208.022 241.327 207.329 242 206.449 242.48C205.582 242.947 204.622 243.18 203.569 243.18ZM203.569 241.2C204.156 241.2 204.702 241.06 205.209 240.78C205.729 240.5 206.149 240.08 206.469 239.52C206.789 238.96 206.949 238.28 206.949 237.48C206.949 236.68 206.796 236.007 206.489 235.46C206.182 234.9 205.776 234.48 205.269 234.2C204.762 233.92 204.216 233.78 203.629 233.78C203.042 233.78 202.496 233.92 201.989 234.2C201.496 234.48 201.102 234.9 200.809 235.46C200.516 236.007 200.369 236.68 200.369 237.48C200.369 238.667 200.669 239.587 201.269 240.24C201.882 240.88 202.649 241.2 203.569 241.2ZM215.243 231.8C216.083 231.8 216.83 231.98 217.483 232.34C218.15 232.7 218.67 233.233 219.043 233.94C219.43 234.647 219.623 235.5 219.623 236.5V243H217.363V236.84C217.363 235.853 217.116 235.1 216.623 234.58C216.13 234.047 215.456 233.78 214.603 233.78C213.75 233.78 213.07 234.047 212.563 234.58C212.07 235.1 211.823 235.853 211.823 236.84V243H209.543V228.2H211.823V233.26C212.21 232.793 212.696 232.433 213.283 232.18C213.883 231.927 214.536 231.8 215.243 231.8ZM226.091 231.8C226.958 231.8 227.731 231.98 228.411 232.34C229.105 232.7 229.645 233.233 230.031 233.94C230.418 234.647 230.611 235.5 230.611 236.5V243H228.351V236.84C228.351 235.853 228.105 235.1 227.611 234.58C227.118 234.047 226.445 233.78 225.591 233.78C224.738 233.78 224.058 234.047 223.551 234.58C223.058 235.1 222.811 235.853 222.811 236.84V243H220.531V231.98H222.811V233.24C223.185 232.787 223.658 232.433 224.231 232.18C224.818 231.927 225.438 231.8 226.091 231.8ZM237.08 231.8C237.946 231.8 238.72 231.98 239.4 232.34C240.093 232.7 240.633 233.233 241.02 233.94C241.406 234.647 241.6 235.5 241.6 236.5V243H239.34V236.84C239.34 235.853 239.093 235.1 238.6 234.58C238.106 234.047 237.433 233.78 236.58 233.78C235.726 233.78 235.046 234.047 234.54 234.58C234.046 235.1 233.8 235.853 233.8 236.84V243H231.52V231.98H233.8V233.24C234.173 232.787 234.646 232.433 235.22 232.18C235.806 231.927 236.426 231.8 237.08 231.8ZM252.428 231.98L245.668 248.18H243.308L245.548 242.82L241.208 231.98H243.748L246.848 240.38L250.068 231.98H252.428ZM266.444 229.1V243H264.164V236.92H257.624V243H255.344V229.1H257.624V235.06H264.164V229.1H266.444ZM266.685 237.44C266.685 236.333 266.912 235.353 267.365 234.5C267.832 233.647 268.459 232.987 269.245 232.52C270.045 232.04 270.925 231.8 271.885 231.8C272.752 231.8 273.505 231.973 274.145 232.32C274.799 232.653 275.319 233.073 275.705 233.58V231.98H278.005V243H275.705V241.36C275.319 241.88 274.792 242.313 274.125 242.66C273.459 243.007 272.699 243.18 271.845 243.18C270.899 243.18 270.032 242.94 269.245 242.46C268.459 241.967 267.832 241.287 267.365 240.42C266.912 239.54 266.685 238.547 266.685 237.44ZM275.705 237.48C275.705 236.72 275.545 236.06 275.225 235.5C274.919 234.94 274.512 234.513 274.005 234.22C273.499 233.927 272.952 233.78 272.365 233.78C271.779 233.78 271.232 233.927 270.725 234.22C270.219 234.5 269.805 234.92 269.485 235.48C269.179 236.027 269.025 236.68 269.025 237.44C269.025 238.2 269.179 238.867 269.485 239.44C269.805 240.013 270.219 240.453 270.725 240.76C271.245 241.053 271.792 241.2 272.365 241.2C272.952 241.2 273.499 241.053 274.005 240.76C274.512 240.467 274.919 240.04 275.225 239.48C275.545 238.907 275.705 238.24 275.705 237.48ZM281.28 228.2V243H279V228.2H281.28ZM284.553 228.2V243H282.273V228.2H284.553ZM286.707 230.52C286.294 230.52 285.947 230.38 285.667 230.1C285.387 229.82 285.247 229.473 285.247 229.06C285.247 228.647 285.387 228.3 285.667 228.02C285.947 227.74 286.294 227.6 286.707 227.6C287.107 227.6 287.447 227.74 287.727 228.02C288.007 228.3 288.147 228.647 288.147 229.06C288.147 229.473 288.007 229.82 287.727 230.1C287.447 230.38 287.107 230.52 286.707 230.52ZM287.827 231.98V243H285.547V231.98H287.827ZM291.48 233.84V239.94C291.48 240.353 291.574 240.653 291.76 240.84C291.96 241.013 292.294 241.1 292.76 241.1H294.16V243H292.36C291.334 243 290.547 242.76 290 242.28C289.454 241.8 289.18 241.02 289.18 239.94V233.84H287.88V231.98H289.18V229.24H291.48V231.98H294.16V233.84H291.48ZM304.362 237.22C304.362 237.633 304.335 238.007 304.282 238.34H295.862C295.928 239.22 296.255 239.927 296.842 240.46C297.428 240.993 298.148 241.26 299.002 241.26C300.228 241.26 301.095 240.747 301.602 239.72H304.062C303.728 240.733 303.122 241.567 302.242 242.22C301.375 242.86 300.295 243.18 299.002 243.18C297.948 243.18 297.002 242.947 296.162 242.48C295.335 242 294.682 241.333 294.202 240.48C293.735 239.613 293.502 238.613 293.502 237.48C293.502 236.347 293.728 235.353 294.182 234.5C294.648 233.633 295.295 232.967 296.122 232.5C296.962 232.033 297.922 231.8 299.002 231.8C300.042 231.8 300.968 232.027 301.782 232.48C302.595 232.933 303.228 233.573 303.682 234.4C304.135 235.213 304.362 236.153 304.362 237.22ZM301.982 236.5C301.968 235.66 301.668 234.987 301.082 234.48C300.495 233.973 299.768 233.72 298.902 233.72C298.115 233.72 297.442 233.973 296.882 234.48C296.322 234.973 295.988 235.647 295.882 236.5H301.982ZM301.002 229.02L296.582 231.2V229.52L301.002 227.08V229.02Z" fill="black"/>
</g>
</svg>
