<svg id="visual" viewBox="0 0 1200 2000" width="1200" height="2000" xmlns="http://www.w3.org/2000/svg" xmlns:xlink="http://www.w3.org/1999/xlink" version="1.1"><rect x="0" y="0" width="1200" height="2000" fill="#FFFDF7"></rect><defs><linearGradient id="grad1_0" x1="0%" y1="100%" x2="100%" y2="0%"><stop offset="30%" stop-color="#fffdf7" stop-opacity="1"></stop><stop offset="70%" stop-color="#fffdf7" stop-opacity="1"></stop></linearGradient></defs><defs><linearGradient id="grad2_0" x1="0%" y1="100%" x2="100%" y2="0%"><stop offset="30%" stop-color="#fffdf7" stop-opacity="1"></stop><stop offset="70%" stop-color="#fffdf7" stop-opacity="1"></stop></linearGradient></defs><g transform="translate(1200, 2000)"><path d="M-641.4 0C-602.6 -71.4 -563.7 -142.7 -538.6 -223.1C-513.5 -303.5 -502.2 -392.8 -453.5 -453.5C-404.9 -514.2 -319.1 -546.3 -237.3 -572.8C-155.5 -599.3 -77.7 -620.4 0 -641.4L0 0Z" fill="#84F77E"></path></g><g transform="translate(0, 0)"><path d="M641.4 0C573 55.3 504.5 110.7 486.9 201.7C469.3 292.7 502.4 419.4 453.5 453.5C404.7 487.7 273.7 429.4 184.5 445.3C95.2 461.2 47.6 551.3 0 641.4L0 0Z" fill="#84F77E"></path></g></svg>