<svg width="199" height="56" viewBox="0 0 199 56" fill="none" xmlns="http://www.w3.org/2000/svg">
<g clip-path="url(#clip0_356_595)">
<rect x="37" y="46" width="159" height="6" fill="#F0CA0F" fill-opacity="0.5"/>
<path d="M37.38 44.6V43.77H39.26V51H38.34V44.6H37.38ZM40.8031 45.59C40.8498 44.9767 41.0865 44.4967 41.5131 44.15C41.9398 43.8033 42.4931 43.63 43.1731 43.63C43.6265 43.63 44.0165 43.7133 44.3431 43.88C44.6765 44.04 44.9265 44.26 45.0931 44.54C45.2665 44.82 45.3531 45.1367 45.3531 45.49C45.3531 45.9033 45.2331 46.26 44.9931 46.56C44.7598 46.86 44.4531 47.0533 44.0731 47.14V47.19C44.5065 47.2967 44.8498 47.5067 45.1031 47.82C45.3565 48.1333 45.4831 48.5433 45.4831 49.05C45.4831 49.43 45.3965 49.7733 45.2231 50.08C45.0498 50.38 44.7898 50.6167 44.4431 50.79C44.0965 50.9633 43.6798 51.05 43.1931 51.05C42.4865 51.05 41.9065 50.8667 41.4531 50.5C40.9998 50.1267 40.7465 49.6 40.6931 48.92H41.5731C41.6198 49.32 41.7831 49.6467 42.0631 49.9C42.3431 50.1533 42.7165 50.28 43.1831 50.28C43.6498 50.28 44.0031 50.16 44.2431 49.92C44.4898 49.6733 44.6131 49.3567 44.6131 48.97C44.6131 48.47 44.4465 48.11 44.1131 47.89C43.7798 47.67 43.2765 47.56 42.6031 47.56H42.3731V46.8H42.6131C43.2265 46.7933 43.6898 46.6933 44.0031 46.5C44.3165 46.3 44.4731 45.9933 44.4731 45.58C44.4731 45.2267 44.3565 44.9433 44.1231 44.73C43.8965 44.5167 43.5698 44.41 43.1431 44.41C42.7298 44.41 42.3965 44.5167 42.1431 44.73C41.8898 44.9433 41.7398 45.23 41.6931 45.59H40.8031ZM53.3278 46.95V47.72H49.3378V46.95H53.3278ZM57.3116 44.6V43.77H59.1916V51H58.2716V44.6H57.3116ZM60.5348 49.39V48.7L64.0448 43.84H65.1348V48.6H66.1348V49.39H65.1348V51H64.2348V49.39H60.5348ZM64.2748 44.79L61.5848 48.6H64.2748V44.79ZM73.3698 44.03V49.18C73.3698 49.7533 73.1932 50.2133 72.8398 50.56C72.4865 50.9 72.0198 51.07 71.4398 51.07C70.8532 51.07 70.3832 50.8967 70.0298 50.55C69.6765 50.1967 69.4998 49.7167 69.4998 49.11H70.4098C70.4165 49.45 70.5032 49.7267 70.6698 49.94C70.8432 50.1533 71.0998 50.26 71.4398 50.26C71.7798 50.26 72.0332 50.16 72.1998 49.96C72.3665 49.7533 72.4498 49.4933 72.4498 49.18V44.03H73.3698ZM80.0226 45.52V51H79.1126V50.19C78.9392 50.47 78.6959 50.69 78.3826 50.85C78.0759 51.0033 77.7359 51.08 77.3626 51.08C76.9359 51.08 76.5526 50.9933 76.2126 50.82C75.8726 50.64 75.6026 50.3733 75.4026 50.02C75.2092 49.6667 75.1126 49.2367 75.1126 48.73V45.52H76.0126V48.61C76.0126 49.15 76.1492 49.5667 76.4226 49.86C76.6959 50.1467 77.0692 50.29 77.5426 50.29C78.0292 50.29 78.4126 50.14 78.6926 49.84C78.9726 49.54 79.1126 49.1033 79.1126 48.53V45.52H80.0226ZM82.0291 44.63C81.8557 44.63 81.7091 44.57 81.5891 44.45C81.4691 44.33 81.4091 44.1833 81.4091 44.01C81.4091 43.8367 81.4691 43.69 81.5891 43.57C81.7091 43.45 81.8557 43.39 82.0291 43.39C82.1957 43.39 82.3357 43.45 82.4491 43.57C82.5691 43.69 82.6291 43.8367 82.6291 44.01C82.6291 44.1833 82.5691 44.33 82.4491 44.45C82.3357 44.57 82.1957 44.63 82.0291 44.63ZM82.4691 45.52V51H81.5591V45.52H82.4691ZM84.93 43.6V51H84.02V43.6H84.93ZM87.3909 43.6V51H86.4809V43.6H87.3909ZM93.9419 48.05C93.9419 48.2233 93.9319 48.4067 93.9119 48.6H89.5319C89.5652 49.14 89.7485 49.5633 90.0819 49.87C90.4219 50.17 90.8319 50.32 91.3119 50.32C91.7052 50.32 92.0319 50.23 92.2919 50.05C92.5585 49.8633 92.7452 49.6167 92.8519 49.31H93.8319C93.6852 49.8367 93.3919 50.2667 92.9519 50.6C92.5119 50.9267 91.9652 51.09 91.3119 51.09C90.7919 51.09 90.3252 50.9733 89.9119 50.74C89.5052 50.5067 89.1852 50.1767 88.9519 49.75C88.7185 49.3167 88.6019 48.8167 88.6019 48.25C88.6019 47.6833 88.7152 47.1867 88.9419 46.76C89.1685 46.3333 89.4852 46.0067 89.8919 45.78C90.3052 45.5467 90.7785 45.43 91.3119 45.43C91.8319 45.43 92.2919 45.5433 92.6919 45.77C93.0919 45.9967 93.3985 46.31 93.6119 46.71C93.8319 47.1033 93.9419 47.55 93.9419 48.05ZM93.0019 47.86C93.0019 47.5133 92.9252 47.2167 92.7719 46.97C92.6185 46.7167 92.4085 46.5267 92.1419 46.4C91.8819 46.2667 91.5919 46.2 91.2719 46.2C90.8119 46.2 90.4185 46.3467 90.0919 46.64C89.7719 46.9333 89.5885 47.34 89.5419 47.86H93.0019ZM96.253 46.27V49.5C96.253 49.7667 96.3097 49.9567 96.423 50.07C96.5364 50.1767 96.733 50.23 97.013 50.23H97.683V51H96.863C96.3564 51 95.9764 50.8833 95.723 50.65C95.4697 50.4167 95.343 50.0333 95.343 49.5V46.27H94.633V45.52H95.343V44.14H96.253V45.52H97.683V46.27H96.253ZM101.192 50.27C102.038 49.59 102.702 49.0333 103.182 48.6C103.662 48.16 104.065 47.7033 104.392 47.23C104.725 46.75 104.892 46.28 104.892 45.82C104.892 45.3867 104.785 45.0467 104.572 44.8C104.365 44.5467 104.028 44.42 103.562 44.42C103.108 44.42 102.755 44.5633 102.502 44.85C102.255 45.13 102.122 45.5067 102.102 45.98H101.222C101.248 45.2333 101.475 44.6567 101.902 44.25C102.328 43.8433 102.878 43.64 103.552 43.64C104.238 43.64 104.782 43.83 105.182 44.21C105.588 44.59 105.792 45.1133 105.792 45.78C105.792 46.3333 105.625 46.8733 105.292 47.4C104.965 47.92 104.592 48.38 104.172 48.78C103.752 49.1733 103.215 49.6333 102.562 50.16H106.002V50.92H101.192V50.27ZM107.054 47.31C107.054 46.1633 107.24 45.27 107.614 44.63C107.987 43.9833 108.64 43.66 109.574 43.66C110.5 43.66 111.15 43.9833 111.524 44.63C111.897 45.27 112.084 46.1633 112.084 47.31C112.084 48.4767 111.897 49.3833 111.524 50.03C111.15 50.6767 110.5 51 109.574 51C108.64 51 107.987 50.6767 107.614 50.03C107.24 49.3833 107.054 48.4767 107.054 47.31ZM111.184 47.31C111.184 46.73 111.144 46.24 111.064 45.84C110.99 45.4333 110.834 45.1067 110.594 44.86C110.36 44.6133 110.02 44.49 109.574 44.49C109.12 44.49 108.774 44.6133 108.534 44.86C108.3 45.1067 108.144 45.4333 108.064 45.84C107.99 46.24 107.954 46.73 107.954 47.31C107.954 47.91 107.99 48.4133 108.064 48.82C108.144 49.2267 108.3 49.5533 108.534 49.8C108.774 50.0467 109.12 50.17 109.574 50.17C110.02 50.17 110.36 50.0467 110.594 49.8C110.834 49.5533 110.99 49.2267 111.064 48.82C111.144 48.4133 111.184 47.91 111.184 47.31ZM113.223 50.27C114.07 49.59 114.733 49.0333 115.213 48.6C115.693 48.16 116.096 47.7033 116.423 47.23C116.756 46.75 116.923 46.28 116.923 45.82C116.923 45.3867 116.816 45.0467 116.603 44.8C116.396 44.5467 116.06 44.42 115.593 44.42C115.14 44.42 114.786 44.5633 114.533 44.85C114.286 45.13 114.153 45.5067 114.133 45.98H113.253C113.28 45.2333 113.506 44.6567 113.933 44.25C114.36 43.8433 114.91 43.64 115.583 43.64C116.27 43.64 116.813 43.83 117.213 44.21C117.62 44.59 117.823 45.1133 117.823 45.78C117.823 46.3333 117.656 46.8733 117.323 47.4C116.996 47.92 116.623 48.38 116.203 48.78C115.783 49.1733 115.246 49.6333 114.593 50.16H118.033V50.92H113.223V50.27ZM118.865 49.39V48.7L122.375 43.84H123.465V48.6H124.465V49.39H123.465V51H122.565V49.39H118.865ZM122.605 44.79L119.915 48.6H122.605V44.79ZM131.99 46.95V47.72H128V46.95H131.99ZM140.484 49.45H137.444L136.884 51H135.924L138.444 44.07H139.494L142.004 51H141.044L140.484 49.45ZM140.224 48.71L138.964 45.19L137.704 48.71H140.224ZM143.572 44.63C143.399 44.63 143.252 44.57 143.132 44.45C143.012 44.33 142.952 44.1833 142.952 44.01C142.952 43.8367 143.012 43.69 143.132 43.57C143.252 43.45 143.399 43.39 143.572 43.39C143.739 43.39 143.879 43.45 143.992 43.57C144.112 43.69 144.172 43.8367 144.172 44.01C144.172 44.1833 144.112 44.33 143.992 44.45C143.879 44.57 143.739 44.63 143.572 44.63ZM144.012 45.52V51H143.102V45.52H144.012ZM148.423 51L147.123 48.96L145.873 51H144.923L146.693 48.28L144.923 45.52H145.953L147.253 47.55L148.493 45.52H149.443L147.683 48.23L149.453 51H148.423ZM153.924 43.6V51H153.014V43.6H153.924ZM160.475 48.05C160.475 48.2233 160.465 48.4067 160.445 48.6H156.065C156.098 49.14 156.282 49.5633 156.615 49.87C156.955 50.17 157.365 50.32 157.845 50.32C158.238 50.32 158.565 50.23 158.825 50.05C159.092 49.8633 159.278 49.6167 159.385 49.31H160.365C160.218 49.8367 159.925 50.2667 159.485 50.6C159.045 50.9267 158.498 51.09 157.845 51.09C157.325 51.09 156.858 50.9733 156.445 50.74C156.038 50.5067 155.718 50.1767 155.485 49.75C155.252 49.3167 155.135 48.8167 155.135 48.25C155.135 47.6833 155.248 47.1867 155.475 46.76C155.702 46.3333 156.018 46.0067 156.425 45.78C156.838 45.5467 157.312 45.43 157.845 45.43C158.365 45.43 158.825 45.5433 159.225 45.77C159.625 45.9967 159.932 46.31 160.145 46.71C160.365 47.1033 160.475 47.55 160.475 48.05ZM159.535 47.86C159.535 47.5133 159.458 47.2167 159.305 46.97C159.152 46.7167 158.942 46.5267 158.675 46.4C158.415 46.2667 158.125 46.2 157.805 46.2C157.345 46.2 156.952 46.3467 156.625 46.64C156.305 46.9333 156.122 47.34 156.075 47.86H159.535ZM163.616 51.09C163.196 51.09 162.82 51.02 162.486 50.88C162.153 50.7333 161.89 50.5333 161.696 50.28C161.503 50.02 161.396 49.7233 161.376 49.39H162.316C162.343 49.6633 162.47 49.8867 162.696 50.06C162.93 50.2333 163.233 50.32 163.606 50.32C163.953 50.32 164.226 50.2433 164.426 50.09C164.626 49.9367 164.726 49.7433 164.726 49.51C164.726 49.27 164.62 49.0933 164.406 48.98C164.193 48.86 163.863 48.7433 163.416 48.63C163.01 48.5233 162.676 48.4167 162.416 48.31C162.163 48.1967 161.943 48.0333 161.756 47.82C161.576 47.6 161.486 47.3133 161.486 46.96C161.486 46.68 161.57 46.4233 161.736 46.19C161.903 45.9567 162.14 45.7733 162.446 45.64C162.753 45.5 163.103 45.43 163.496 45.43C164.103 45.43 164.593 45.5833 164.966 45.89C165.34 46.1967 165.54 46.6167 165.566 47.15H164.656C164.636 46.8633 164.52 46.6333 164.306 46.46C164.1 46.2867 163.82 46.2 163.466 46.2C163.14 46.2 162.88 46.27 162.686 46.41C162.493 46.55 162.396 46.7333 162.396 46.96C162.396 47.14 162.453 47.29 162.566 47.41C162.686 47.5233 162.833 47.6167 163.006 47.69C163.186 47.7567 163.433 47.8333 163.746 47.92C164.14 48.0267 164.46 48.1333 164.706 48.24C164.953 48.34 165.163 48.4933 165.336 48.7C165.516 48.9067 165.61 49.1767 165.616 49.51C165.616 49.81 165.533 50.08 165.366 50.32C165.2 50.56 164.963 50.75 164.656 50.89C164.356 51.0233 164.01 51.09 163.616 51.09ZM173.057 47.41C173.31 47.45 173.54 47.5533 173.747 47.72C173.96 47.8867 174.127 48.0933 174.247 48.34C174.374 48.5867 174.437 48.85 174.437 49.13C174.437 49.4833 174.347 49.8033 174.167 50.09C173.987 50.37 173.724 50.5933 173.377 50.76C173.037 50.92 172.634 51 172.167 51H169.567V44.03H172.067C172.54 44.03 172.944 44.11 173.277 44.27C173.61 44.4233 173.86 44.6333 174.027 44.9C174.194 45.1667 174.277 45.4667 174.277 45.8C174.277 46.2133 174.164 46.5567 173.937 46.83C173.717 47.0967 173.424 47.29 173.057 47.41ZM170.477 47.04H172.007C172.434 47.04 172.764 46.94 172.997 46.74C173.23 46.54 173.347 46.2633 173.347 45.91C173.347 45.5567 173.23 45.28 172.997 45.08C172.764 44.88 172.427 44.78 171.987 44.78H170.477V47.04ZM172.087 50.25C172.54 50.25 172.894 50.1433 173.147 49.93C173.4 49.7167 173.527 49.42 173.527 49.04C173.527 48.6533 173.394 48.35 173.127 48.13C172.86 47.9033 172.504 47.79 172.057 47.79H170.477V50.25H172.087ZM175.36 48.24C175.36 47.68 175.473 47.19 175.7 46.77C175.926 46.3433 176.236 46.0133 176.63 45.78C177.03 45.5467 177.473 45.43 177.96 45.43C178.44 45.43 178.856 45.5333 179.21 45.74C179.563 45.9467 179.826 46.2067 180 46.52V45.52H180.92V51H180V49.98C179.82 50.3 179.55 50.5667 179.19 50.78C178.836 50.9867 178.423 51.09 177.95 51.09C177.463 51.09 177.023 50.97 176.63 50.73C176.236 50.49 175.926 50.1533 175.7 49.72C175.473 49.2867 175.36 48.7933 175.36 48.24ZM180 48.25C180 47.8367 179.916 47.4767 179.75 47.17C179.583 46.8633 179.356 46.63 179.07 46.47C178.79 46.3033 178.48 46.22 178.14 46.22C177.8 46.22 177.49 46.3 177.21 46.46C176.93 46.62 176.706 46.8533 176.54 47.16C176.373 47.4667 176.29 47.8267 176.29 48.24C176.29 48.66 176.373 49.0267 176.54 49.34C176.706 49.6467 176.93 49.8833 177.21 50.05C177.49 50.21 177.8 50.29 178.14 50.29C178.48 50.29 178.79 50.21 179.07 50.05C179.356 49.8833 179.583 49.6467 179.75 49.34C179.916 49.0267 180 48.6633 180 48.25ZM182.928 44.63C182.754 44.63 182.608 44.57 182.488 44.45C182.368 44.33 182.308 44.1833 182.308 44.01C182.308 43.8367 182.368 43.69 182.488 43.57C182.608 43.45 182.754 43.39 182.928 43.39C183.094 43.39 183.234 43.45 183.348 43.57C183.468 43.69 183.528 43.8367 183.528 44.01C183.528 44.1833 183.468 44.33 183.348 44.45C183.234 44.57 183.094 44.63 182.928 44.63ZM183.368 45.52V51H182.458V45.52H183.368ZM187.588 45.42C188.255 45.42 188.795 45.6233 189.208 46.03C189.622 46.43 189.828 47.01 189.828 47.77V51H188.928V47.9C188.928 47.3533 188.792 46.9367 188.518 46.65C188.245 46.3567 187.872 46.21 187.398 46.21C186.918 46.21 186.535 46.36 186.248 46.66C185.968 46.96 185.828 47.3967 185.828 47.97V51H184.918V45.52H185.828V46.3C186.008 46.02 186.252 45.8033 186.558 45.65C186.872 45.4967 187.215 45.42 187.588 45.42ZM193.255 51.09C192.835 51.09 192.458 51.02 192.125 50.88C191.792 50.7333 191.528 50.5333 191.335 50.28C191.142 50.02 191.035 49.7233 191.015 49.39H191.955C191.982 49.6633 192.108 49.8867 192.335 50.06C192.568 50.2333 192.872 50.32 193.245 50.32C193.592 50.32 193.865 50.2433 194.065 50.09C194.265 49.9367 194.365 49.7433 194.365 49.51C194.365 49.27 194.258 49.0933 194.045 48.98C193.832 48.86 193.502 48.7433 193.055 48.63C192.648 48.5233 192.315 48.4167 192.055 48.31C191.802 48.1967 191.582 48.0333 191.395 47.82C191.215 47.6 191.125 47.3133 191.125 46.96C191.125 46.68 191.208 46.4233 191.375 46.19C191.542 45.9567 191.778 45.7733 192.085 45.64C192.392 45.5 192.742 45.43 193.135 45.43C193.742 45.43 194.232 45.5833 194.605 45.89C194.978 46.1967 195.178 46.6167 195.205 47.15H194.295C194.275 46.8633 194.158 46.6333 193.945 46.46C193.738 46.2867 193.458 46.2 193.105 46.2C192.778 46.2 192.518 46.27 192.325 46.41C192.132 46.55 192.035 46.7333 192.035 46.96C192.035 47.14 192.092 47.29 192.205 47.41C192.325 47.5233 192.472 47.6167 192.645 47.69C192.825 47.7567 193.072 47.8333 193.385 47.92C193.778 48.0267 194.098 48.1333 194.345 48.24C194.592 48.34 194.802 48.4933 194.975 48.7C195.155 48.9067 195.248 49.1767 195.255 49.51C195.255 49.81 195.172 50.08 195.005 50.32C194.838 50.56 194.602 50.75 194.295 50.89C193.995 51.0233 193.648 51.09 193.255 51.09Z" fill="#0A0901"/>
<path d="M25.688 32.448H33.048V36H21.208V13.664H25.688V32.448ZM38.1675 16.16C37.3782 16.16 36.7168 15.9147 36.1835 15.424C35.6715 14.912 35.4155 14.2827 35.4155 13.536C35.4155 12.7893 35.6715 12.1707 36.1835 11.68C36.7168 11.168 37.3782 10.912 38.1675 10.912C38.9568 10.912 39.6075 11.168 40.1195 11.68C40.6528 12.1707 40.9195 12.7893 40.9195 13.536C40.9195 14.2827 40.6528 14.912 40.1195 15.424C39.6075 15.9147 38.9568 16.16 38.1675 16.16ZM40.3755 18.272V36H35.8955V18.272H40.3755ZM52.1938 31.872L56.6738 18.272H61.4418L54.8818 36H49.4418L42.9138 18.272H47.7138L52.1938 31.872ZM80.438 26.752C80.438 27.392 80.3953 27.968 80.31 28.48H67.35C67.4567 29.76 67.9047 30.7627 68.694 31.488C69.4833 32.2133 70.454 32.576 71.606 32.576C73.27 32.576 74.454 31.8613 75.158 30.432H79.99C79.478 32.1387 78.4967 33.5467 77.046 34.656C75.5953 35.744 73.814 36.288 71.702 36.288C69.9953 36.288 68.4593 35.9147 67.094 35.168C65.75 34.4 64.694 33.3227 63.926 31.936C63.1793 30.5493 62.806 28.9493 62.806 27.136C62.806 25.3013 63.1793 23.6907 63.926 22.304C64.6727 20.9173 65.718 19.8507 67.062 19.104C68.406 18.3573 69.9527 17.984 71.702 17.984C73.3873 17.984 74.8913 18.3467 76.214 19.072C77.558 19.7973 78.5927 20.832 79.318 22.176C80.0647 23.4987 80.438 25.024 80.438 26.752ZM75.798 25.472C75.7767 24.32 75.3607 23.4027 74.55 22.72C73.7393 22.016 72.7473 21.664 71.574 21.664C70.4647 21.664 69.526 22.0053 68.758 22.688C68.0113 23.3493 67.5527 24.2773 67.382 25.472H75.798ZM88.188 17.28V22.88H95.708V26.432H88.188V32.352H96.668V36H83.708V13.632H96.668V17.28H88.188ZM108.131 31.872L112.611 18.272H117.379L110.819 36H105.379L98.8513 18.272H103.651L108.131 31.872ZM136.376 26.752C136.376 27.392 136.333 27.968 136.248 28.48H123.288C123.394 29.76 123.842 30.7627 124.632 31.488C125.421 32.2133 126.392 32.576 127.544 32.576C129.208 32.576 130.392 31.8613 131.096 30.432H135.928C135.416 32.1387 134.434 33.5467 132.984 34.656C131.533 35.744 129.752 36.288 127.64 36.288C125.933 36.288 124.397 35.9147 123.032 35.168C121.688 34.4 120.632 33.3227 119.864 31.936C119.117 30.5493 118.743 28.9493 118.743 27.136C118.743 25.3013 119.117 23.6907 119.864 22.304C120.61 20.9173 121.656 19.8507 123 19.104C124.344 18.3573 125.89 17.984 127.64 17.984C129.325 17.984 130.829 18.3467 132.152 19.072C133.496 19.7973 134.53 20.832 135.256 22.176C136.002 23.4987 136.376 25.024 136.376 26.752ZM131.736 25.472C131.714 24.32 131.298 23.4027 130.488 22.72C129.677 22.016 128.685 21.664 127.512 21.664C126.402 21.664 125.464 22.0053 124.696 22.688C123.949 23.3493 123.49 24.2773 123.32 25.472H131.736ZM149.47 18.016C151.582 18.016 153.288 18.688 154.59 20.032C155.891 21.3547 156.542 23.2107 156.542 25.6V36H152.062V26.208C152.062 24.8 151.71 23.7227 151.006 22.976C150.302 22.208 149.342 21.824 148.126 21.824C146.888 21.824 145.907 22.208 145.182 22.976C144.478 23.7227 144.126 24.8 144.126 26.208V36H139.646V18.272H144.126V20.48C144.723 19.712 145.48 19.1147 146.398 18.688C147.336 18.24 148.36 18.016 149.47 18.016ZM166.018 21.952V30.528C166.018 31.1253 166.156 31.5627 166.434 31.84C166.732 32.096 167.223 32.224 167.906 32.224H169.986V36H167.17C163.394 36 161.506 34.1653 161.506 30.496V21.952H159.394V18.272H161.506V13.888H166.018V18.272H169.986V21.952H166.018Z" fill="#0A0901"/>
<path d="M40.4554 11.1756C39.5452 10.7326 38.5946 11.1165 38.0283 12.4556C38.0283 12.4556 37.2193 10.4864 35.9046 11.1756C34.59 11.8648 35.0956 13.3417 35.0956 13.3417C35.4247 14.0978 35.7212 14.4349 36.4103 14.917L38.0283 16C38.6166 15.6537 39.0098 15.4066 39.5453 14.917C40.1388 14.3743 40.5393 14.0559 40.8599 13.3417C40.8599 13.3417 41.3656 11.6187 40.4554 11.1756Z" fill="black" stroke="black"/>
<mask id="path-5-inside-1_356_595" fill="white">
<path d="M21 42H30V51H21V42Z"/>
</mask>
<path d="M30 51V52H31V51H30ZM29 42V51H31V42H29ZM30 50H21V52H30V50Z" fill="black" mask="url(#path-5-inside-1_356_595)"/>
<path d="M29 50.25L21 42" stroke="black"/>
</g>
<defs>
<clipPath id="clip0_356_595">
<rect width="199" height="56" fill="white"/>
</clipPath>
</defs>
</svg>
