<svg width="250" height="75" viewBox="0 0 326 99" fill="none" xmlns="http://www.w3.org/2000/svg">
<rect x="34" y="90" width="254" height="8" fill="#F0CA0F" fill-opacity="0.5"/>
<path d="M34.608 87.76V86.432H37.616V98H36.144V87.76H34.608ZM40.085 89.344C40.1597 88.3627 40.5383 87.5947 41.221 87.04C41.9037 86.4853 42.789 86.208 43.877 86.208C44.6023 86.208 45.2263 86.3413 45.749 86.608C46.2823 86.864 46.6823 87.216 46.949 87.664C47.2263 88.112 47.365 88.6187 47.365 89.184C47.365 89.8453 47.173 90.416 46.789 90.896C46.4157 91.376 45.925 91.6853 45.317 91.824V91.904C46.0103 92.0747 46.5597 92.4107 46.965 92.912C47.3703 93.4133 47.573 94.0693 47.573 94.88C47.573 95.488 47.4343 96.0373 47.157 96.528C46.8797 97.008 46.4637 97.3867 45.909 97.664C45.3543 97.9413 44.6877 98.08 43.909 98.08C42.7783 98.08 41.8503 97.7867 41.125 97.2C40.3997 96.6027 39.9943 95.76 39.909 94.672H41.317C41.3917 95.312 41.653 95.8347 42.101 96.24C42.549 96.6453 43.1463 96.848 43.893 96.848C44.6397 96.848 45.205 96.656 45.589 96.272C45.9837 95.8773 46.181 95.3707 46.181 94.752C46.181 93.952 45.9143 93.376 45.381 93.024C44.8477 92.672 44.0423 92.496 42.965 92.496H42.597V91.28H42.981C43.9623 91.2693 44.7037 91.1093 45.205 90.8C45.7063 90.48 45.957 89.9893 45.957 89.328C45.957 88.7627 45.7703 88.3093 45.397 87.968C45.0343 87.6267 44.5117 87.456 43.829 87.456C43.1677 87.456 42.6343 87.6267 42.229 87.968C41.8237 88.3093 41.5837 88.768 41.509 89.344H40.085ZM60.1245 91.52V92.752H53.7405V91.52H60.1245ZM66.4986 87.76V86.432H69.5066V98H68.0346V87.76H66.4986ZM71.6556 95.424V94.32L77.2716 86.544H79.0156V94.16H80.6156V95.424H79.0156V98H77.5756V95.424H71.6556ZM77.6396 88.064L73.3356 94.16H77.6396V88.064ZM92.1918 86.848V95.088C92.1918 96.0053 91.9091 96.7413 91.3438 97.296C90.7784 97.84 90.0318 98.112 89.1038 98.112C88.1651 98.112 87.4131 97.8347 86.8478 97.28C86.2824 96.7147 85.9998 95.9467 85.9998 94.976H87.4557C87.4664 95.52 87.6051 95.9627 87.8718 96.304C88.1491 96.6453 88.5598 96.816 89.1038 96.816C89.6478 96.816 90.0531 96.656 90.3198 96.336C90.5864 96.0053 90.7198 95.5893 90.7198 95.088V86.848H92.1918ZM102.836 89.232V98H101.38V96.704C101.103 97.152 100.713 97.504 100.212 97.76C99.7215 98.0053 99.1775 98.128 98.5801 98.128C97.8975 98.128 97.2841 97.9893 96.7401 97.712C96.1961 97.424 95.7641 96.9973 95.4441 96.432C95.1348 95.8667 94.9801 95.1787 94.9801 94.368V89.232H96.4201V94.176C96.4201 95.04 96.6388 95.7067 97.0761 96.176C97.5135 96.6347 98.1108 96.864 98.8681 96.864C99.6468 96.864 100.26 96.624 100.708 96.144C101.156 95.664 101.38 94.9653 101.38 94.048V89.232H102.836ZM106.047 87.808C105.769 87.808 105.535 87.712 105.343 87.52C105.151 87.328 105.055 87.0933 105.055 86.816C105.055 86.5387 105.151 86.304 105.343 86.112C105.535 85.92 105.769 85.824 106.047 85.824C106.313 85.824 106.537 85.92 106.719 86.112C106.911 86.304 107.007 86.5387 107.007 86.816C107.007 87.0933 106.911 87.328 106.719 87.52C106.537 87.712 106.313 87.808 106.047 87.808ZM106.751 89.232V98H105.295V89.232H106.751ZM110.688 86.16V98H109.232V86.16H110.688ZM114.626 86.16V98H113.17V86.16H114.626ZM125.107 93.28C125.107 93.5573 125.091 93.8507 125.059 94.16H118.051C118.104 95.024 118.398 95.7013 118.931 96.192C119.475 96.672 120.131 96.912 120.899 96.912C121.528 96.912 122.051 96.768 122.467 96.48C122.894 96.1813 123.192 95.7867 123.363 95.296H124.931C124.696 96.1387 124.227 96.8267 123.523 97.36C122.819 97.8827 121.944 98.144 120.899 98.144C120.067 98.144 119.32 97.9573 118.659 97.584C118.008 97.2107 117.496 96.6827 117.123 96C116.75 95.3067 116.563 94.5067 116.563 93.6C116.563 92.6933 116.744 91.8987 117.107 91.216C117.47 90.5333 117.976 90.0107 118.627 89.648C119.288 89.2747 120.046 89.088 120.899 89.088C121.731 89.088 122.467 89.2693 123.107 89.632C123.747 89.9947 124.238 90.496 124.579 91.136C124.931 91.7653 125.107 92.48 125.107 93.28ZM123.603 92.976C123.603 92.4213 123.48 91.9467 123.235 91.552C122.99 91.1467 122.654 90.8427 122.227 90.64C121.811 90.4267 121.347 90.32 120.835 90.32C120.099 90.32 119.47 90.5547 118.947 91.024C118.435 91.4933 118.142 92.144 118.067 92.976H123.603ZM128.805 90.432V95.6C128.805 96.0267 128.896 96.3307 129.077 96.512C129.258 96.6827 129.573 96.768 130.021 96.768H131.093V98H129.781C128.97 98 128.362 97.8133 127.957 97.44C127.552 97.0667 127.349 96.4533 127.349 95.6V90.432H126.213V89.232H127.349V87.024H128.805V89.232H131.093V90.432H128.805ZM136.707 96.832C138.061 95.744 139.123 94.8533 139.891 94.16C140.659 93.456 141.304 92.7253 141.827 91.968C142.36 91.2 142.627 90.448 142.627 89.712C142.627 89.0187 142.456 88.4747 142.115 88.08C141.784 87.6747 141.245 87.472 140.499 87.472C139.773 87.472 139.208 87.7013 138.803 88.16C138.408 88.608 138.195 89.2107 138.163 89.968H136.755C136.797 88.7733 137.16 87.8507 137.843 87.2C138.525 86.5493 139.405 86.224 140.483 86.224C141.581 86.224 142.451 86.528 143.091 87.136C143.741 87.744 144.067 88.5813 144.067 89.648C144.067 90.5333 143.8 91.3973 143.267 92.24C142.744 93.072 142.147 93.808 141.475 94.448C140.803 95.0773 139.944 95.8133 138.899 96.656H144.403V97.872H136.707V96.832ZM146.086 92.096C146.086 90.2613 146.384 88.832 146.982 87.808C147.579 86.7733 148.624 86.256 150.118 86.256C151.6 86.256 152.64 86.7733 153.238 87.808C153.835 88.832 154.134 90.2613 154.134 92.096C154.134 93.9627 153.835 95.4133 153.238 96.448C152.64 97.4827 151.6 98 150.118 98C148.624 98 147.579 97.4827 146.982 96.448C146.384 95.4133 146.086 93.9627 146.086 92.096ZM152.694 92.096C152.694 91.168 152.63 90.384 152.502 89.744C152.384 89.0933 152.134 88.5707 151.75 88.176C151.376 87.7813 150.832 87.584 150.118 87.584C149.392 87.584 148.838 87.7813 148.454 88.176C148.08 88.5707 147.83 89.0933 147.702 89.744C147.584 90.384 147.526 91.168 147.526 92.096C147.526 93.056 147.584 93.8613 147.702 94.512C147.83 95.1627 148.08 95.6853 148.454 96.08C148.838 96.4747 149.392 96.672 150.118 96.672C150.832 96.672 151.376 96.4747 151.75 96.08C152.134 95.6853 152.384 95.1627 152.502 94.512C152.63 93.8613 152.694 93.056 152.694 92.096ZM155.957 96.832C157.311 95.744 158.373 94.8533 159.141 94.16C159.909 93.456 160.554 92.7253 161.077 91.968C161.61 91.2 161.877 90.448 161.877 89.712C161.877 89.0187 161.706 88.4747 161.365 88.08C161.034 87.6747 160.495 87.472 159.749 87.472C159.023 87.472 158.458 87.7013 158.053 88.16C157.658 88.608 157.445 89.2107 157.413 89.968H156.005C156.047 88.7733 156.41 87.8507 157.093 87.2C157.775 86.5493 158.655 86.224 159.733 86.224C160.831 86.224 161.701 86.528 162.341 87.136C162.991 87.744 163.317 88.5813 163.317 89.648C163.317 90.5333 163.05 91.3973 162.517 92.24C161.994 93.072 161.397 93.808 160.725 94.448C160.053 95.0773 159.194 95.8133 158.149 96.656H163.653V97.872H155.957V96.832ZM164.984 95.424V94.32L170.6 86.544H172.344V94.16H173.944V95.424H172.344V98H170.904V95.424H164.984ZM170.968 88.064L166.664 94.16H170.968V88.064ZM185.984 91.52V92.752H179.6V91.52H185.984ZM199.574 95.52H194.71L193.814 98H192.278L196.31 86.912H197.99L202.006 98H200.47L199.574 95.52ZM199.158 94.336L197.142 88.704L195.126 94.336H199.158ZM204.515 87.808C204.238 87.808 204.003 87.712 203.811 87.52C203.619 87.328 203.523 87.0933 203.523 86.816C203.523 86.5387 203.619 86.304 203.811 86.112C204.003 85.92 204.238 85.824 204.515 85.824C204.782 85.824 205.006 85.92 205.187 86.112C205.379 86.304 205.475 86.5387 205.475 86.816C205.475 87.0933 205.379 87.328 205.187 87.52C205.006 87.712 204.782 87.808 204.515 87.808ZM205.219 89.232V98H203.763V89.232H205.219ZM212.277 98L210.197 94.736L208.197 98H206.677L209.509 93.648L206.677 89.232H208.325L210.405 92.48L212.389 89.232H213.909L211.093 93.568L213.925 98H212.277ZM221.079 86.16V98H219.623V86.16H221.079ZM231.56 93.28C231.56 93.5573 231.544 93.8507 231.512 94.16H224.504C224.557 95.024 224.851 95.7013 225.384 96.192C225.928 96.672 226.584 96.912 227.352 96.912C227.981 96.912 228.504 96.768 228.92 96.48C229.347 96.1813 229.645 95.7867 229.816 95.296H231.384C231.149 96.1387 230.68 96.8267 229.976 97.36C229.272 97.8827 228.397 98.144 227.352 98.144C226.52 98.144 225.773 97.9573 225.112 97.584C224.461 97.2107 223.949 96.6827 223.576 96C223.203 95.3067 223.016 94.5067 223.016 93.6C223.016 92.6933 223.197 91.8987 223.56 91.216C223.923 90.5333 224.429 90.0107 225.08 89.648C225.741 89.2747 226.499 89.088 227.352 89.088C228.184 89.088 228.92 89.2693 229.56 89.632C230.2 89.9947 230.691 90.496 231.032 91.136C231.384 91.7653 231.56 92.48 231.56 93.28ZM230.056 92.976C230.056 92.4213 229.933 91.9467 229.688 91.552C229.443 91.1467 229.107 90.8427 228.68 90.64C228.264 90.4267 227.8 90.32 227.288 90.32C226.552 90.32 225.923 90.5547 225.4 91.024C224.888 91.4933 224.595 92.144 224.52 92.976H230.056ZM236.586 98.144C235.914 98.144 235.311 98.032 234.778 97.808C234.245 97.5733 233.823 97.2533 233.514 96.848C233.205 96.432 233.034 95.9573 233.002 95.424H234.506C234.549 95.8613 234.751 96.2187 235.114 96.496C235.487 96.7733 235.973 96.912 236.57 96.912C237.125 96.912 237.562 96.7893 237.882 96.544C238.202 96.2987 238.362 95.9893 238.362 95.616C238.362 95.232 238.191 94.9493 237.85 94.768C237.509 94.576 236.981 94.3893 236.266 94.208C235.615 94.0373 235.082 93.8667 234.666 93.696C234.261 93.5147 233.909 93.2533 233.61 92.912C233.322 92.56 233.178 92.1013 233.178 91.536C233.178 91.088 233.311 90.6773 233.578 90.304C233.845 89.9307 234.223 89.6373 234.714 89.424C235.205 89.2 235.765 89.088 236.394 89.088C237.365 89.088 238.149 89.3333 238.746 89.824C239.343 90.3147 239.663 90.9867 239.706 91.84H238.25C238.218 91.3813 238.031 91.0133 237.69 90.736C237.359 90.4587 236.911 90.32 236.346 90.32C235.823 90.32 235.407 90.432 235.098 90.656C234.789 90.88 234.634 91.1733 234.634 91.536C234.634 91.824 234.725 92.064 234.906 92.256C235.098 92.4373 235.333 92.5867 235.61 92.704C235.898 92.8107 236.293 92.9333 236.794 93.072C237.423 93.2427 237.935 93.4133 238.33 93.584C238.725 93.744 239.061 93.9893 239.338 94.32C239.626 94.6507 239.775 95.0827 239.786 95.616C239.786 96.096 239.653 96.528 239.386 96.912C239.119 97.296 238.741 97.6 238.25 97.824C237.77 98.0373 237.215 98.144 236.586 98.144ZM251.691 92.256C252.096 92.32 252.464 92.4853 252.795 92.752C253.136 93.0187 253.403 93.3493 253.595 93.744C253.798 94.1387 253.899 94.56 253.899 95.008C253.899 95.5733 253.755 96.0853 253.467 96.544C253.179 96.992 252.758 97.3493 252.203 97.616C251.659 97.872 251.014 98 250.267 98H246.107V86.848H250.107C250.864 86.848 251.51 86.976 252.043 87.232C252.576 87.4773 252.976 87.8133 253.243 88.24C253.51 88.6667 253.643 89.1467 253.643 89.68C253.643 90.3413 253.462 90.8907 253.099 91.328C252.747 91.7547 252.278 92.064 251.691 92.256ZM247.563 91.664H250.011C250.694 91.664 251.222 91.504 251.595 91.184C251.968 90.864 252.155 90.4213 252.155 89.856C252.155 89.2907 251.968 88.848 251.595 88.528C251.222 88.208 250.683 88.048 249.979 88.048H247.563V91.664ZM250.139 96.8C250.864 96.8 251.43 96.6293 251.835 96.288C252.24 95.9467 252.443 95.472 252.443 94.864C252.443 94.2453 252.23 93.76 251.803 93.408C251.376 93.0453 250.806 92.864 250.091 92.864H247.563V96.8H250.139ZM255.376 93.584C255.376 92.688 255.557 91.904 255.92 91.232C256.282 90.5493 256.778 90.0213 257.408 89.648C258.048 89.2747 258.757 89.088 259.536 89.088C260.304 89.088 260.97 89.2533 261.536 89.584C262.101 89.9147 262.522 90.3307 262.8 90.832V89.232H264.272V98H262.8V96.368C262.512 96.88 262.08 97.3067 261.504 97.648C260.938 97.9787 260.277 98.144 259.52 98.144C258.741 98.144 258.037 97.952 257.408 97.568C256.778 97.184 256.282 96.6453 255.92 95.952C255.557 95.2587 255.376 94.4693 255.376 93.584ZM262.8 93.6C262.8 92.9387 262.666 92.3627 262.4 91.872C262.133 91.3813 261.77 91.008 261.312 90.752C260.864 90.4853 260.368 90.352 259.824 90.352C259.28 90.352 258.784 90.48 258.336 90.736C257.888 90.992 257.53 91.3653 257.264 91.856C256.997 92.3467 256.864 92.9227 256.864 93.584C256.864 94.256 256.997 94.8427 257.264 95.344C257.53 95.8347 257.888 96.2133 258.336 96.48C258.784 96.736 259.28 96.864 259.824 96.864C260.368 96.864 260.864 96.736 261.312 96.48C261.77 96.2133 262.133 95.8347 262.4 95.344C262.666 94.8427 262.8 94.2613 262.8 93.6ZM267.484 87.808C267.207 87.808 266.972 87.712 266.78 87.52C266.588 87.328 266.492 87.0933 266.492 86.816C266.492 86.5387 266.588 86.304 266.78 86.112C266.972 85.92 267.207 85.824 267.484 85.824C267.751 85.824 267.975 85.92 268.156 86.112C268.348 86.304 268.444 86.5387 268.444 86.816C268.444 87.0933 268.348 87.328 268.156 87.52C267.975 87.712 267.751 87.808 267.484 87.808ZM268.188 89.232V98H266.732V89.232H268.188ZM274.942 89.072C276.008 89.072 276.872 89.3973 277.534 90.048C278.195 90.688 278.526 91.616 278.526 92.832V98H277.086V93.04C277.086 92.1653 276.867 91.4987 276.43 91.04C275.992 90.5707 275.395 90.336 274.638 90.336C273.87 90.336 273.256 90.576 272.798 91.056C272.35 91.536 272.126 92.2347 272.126 93.152V98H270.67V89.232H272.126V90.48C272.414 90.032 272.803 89.6853 273.294 89.44C273.795 89.1947 274.344 89.072 274.942 89.072ZM284.008 98.144C283.336 98.144 282.733 98.032 282.2 97.808C281.667 97.5733 281.245 97.2533 280.936 96.848C280.627 96.432 280.456 95.9573 280.424 95.424H281.928C281.971 95.8613 282.173 96.2187 282.536 96.496C282.909 96.7733 283.395 96.912 283.992 96.912C284.547 96.912 284.984 96.7893 285.304 96.544C285.624 96.2987 285.784 95.9893 285.784 95.616C285.784 95.232 285.613 94.9493 285.272 94.768C284.931 94.576 284.403 94.3893 283.688 94.208C283.037 94.0373 282.504 93.8667 282.088 93.696C281.683 93.5147 281.331 93.2533 281.032 92.912C280.744 92.56 280.6 92.1013 280.6 91.536C280.6 91.088 280.733 90.6773 281 90.304C281.267 89.9307 281.645 89.6373 282.136 89.424C282.627 89.2 283.187 89.088 283.816 89.088C284.787 89.088 285.571 89.3333 286.168 89.824C286.765 90.3147 287.085 90.9867 287.128 91.84H285.672C285.64 91.3813 285.453 91.0133 285.112 90.736C284.781 90.4587 284.333 90.32 283.768 90.32C283.245 90.32 282.829 90.432 282.52 90.656C282.211 90.88 282.056 91.1733 282.056 91.536C282.056 91.824 282.147 92.064 282.328 92.256C282.52 92.4373 282.755 92.5867 283.032 92.704C283.32 92.8107 283.715 92.9333 284.216 93.072C284.845 93.2427 285.357 93.4133 285.752 93.584C286.147 93.744 286.483 93.9893 286.76 94.32C287.048 94.6507 287.197 95.0827 287.208 95.616C287.208 96.096 287.075 96.528 286.808 96.912C286.541 97.296 286.163 97.6 285.672 97.824C285.192 98.0373 284.637 98.144 284.008 98.144Z" fill="#0A0901"/>
<path d="M13.376 62.896H28.096V70H4.416V25.328H13.376V62.896ZM38.335 30.32C36.7563 30.32 35.4337 29.8293 34.367 28.848C33.343 27.824 32.831 26.5653 32.831 25.072C32.831 23.5787 33.343 22.3413 34.367 21.36C35.4337 20.336 36.7563 19.824 38.335 19.824C39.9137 19.824 41.215 20.336 42.239 21.36C43.3057 22.3413 43.839 23.5787 43.839 25.072C43.839 26.5653 43.3057 27.824 42.239 28.848C41.215 29.8293 39.9137 30.32 38.335 30.32ZM42.751 34.544V70H33.791V34.544H42.751ZM66.3875 61.744L75.3475 34.544H84.8835L71.7635 70H60.8835L47.8275 34.544H57.4275L66.3875 61.744ZM122.876 51.504C122.876 52.784 122.791 53.936 122.62 54.96H96.7C96.9133 57.52 97.8093 59.5253 99.388 60.976C100.967 62.4267 102.908 63.152 105.212 63.152C108.54 63.152 110.908 61.7227 112.316 58.864H121.98C120.956 62.2773 118.993 65.0933 116.092 67.312C113.191 69.488 109.628 70.576 105.404 70.576C101.991 70.576 98.9187 69.8293 96.188 68.336C93.5 66.8 91.388 64.6453 89.852 61.872C88.3587 59.0987 87.612 55.8987 87.612 52.272C87.612 48.6027 88.3587 45.3813 89.852 42.608C91.3453 39.8347 93.436 37.7013 96.124 36.208C98.812 34.7147 101.905 33.968 105.404 33.968C108.775 33.968 111.783 34.6933 114.428 36.144C117.116 37.5947 119.185 39.664 120.636 42.352C122.129 44.9973 122.876 48.048 122.876 51.504ZM113.596 48.944C113.553 46.64 112.721 44.8053 111.1 43.44C109.479 42.032 107.495 41.328 105.148 41.328C102.929 41.328 101.052 42.0107 99.516 43.376C98.0227 44.6987 97.1053 46.5547 96.764 48.944H113.596ZM138.376 32.56V43.76H153.416V50.864H138.376V62.704H155.336V70H129.416V25.264H155.336V32.56H138.376ZM178.263 61.744L187.223 34.544H196.759L183.639 70H172.759L159.703 34.544H169.303L178.263 61.744ZM234.751 51.504C234.751 52.784 234.666 53.936 234.495 54.96H208.575C208.788 57.52 209.684 59.5253 211.263 60.976C212.842 62.4267 214.783 63.152 217.087 63.152C220.415 63.152 222.783 61.7227 224.191 58.864H233.855C232.831 62.2773 230.868 65.0933 227.967 67.312C225.066 69.488 221.503 70.576 217.279 70.576C213.866 70.576 210.794 69.8293 208.063 68.336C205.375 66.8 203.263 64.6453 201.727 61.872C200.234 59.0987 199.487 55.8987 199.487 52.272C199.487 48.6027 200.234 45.3813 201.727 42.608C203.22 39.8347 205.311 37.7013 207.999 36.208C210.687 34.7147 213.78 33.968 217.279 33.968C220.65 33.968 223.658 34.6933 226.303 36.144C228.991 37.5947 231.06 39.664 232.511 42.352C234.004 44.9973 234.751 48.048 234.751 51.504ZM225.471 48.944C225.428 46.64 224.596 44.8053 222.975 43.44C221.354 42.032 219.37 41.328 217.023 41.328C214.804 41.328 212.927 42.0107 211.391 43.376C209.898 44.6987 208.98 46.5547 208.639 48.944H225.471ZM260.939 34.032C265.163 34.032 268.576 35.376 271.179 38.064C273.782 40.7093 275.083 44.4213 275.083 49.2V70H266.123V50.416C266.123 47.6 265.419 45.4453 264.011 43.952C262.603 42.416 260.683 41.648 258.251 41.648C255.776 41.648 253.814 42.416 252.363 43.952C250.955 45.4453 250.251 47.6 250.251 50.416V70H241.291V34.544H250.251V38.96C251.446 37.424 252.96 36.2293 254.795 35.376C256.672 34.48 258.72 34.032 260.939 34.032ZM294.036 41.904V59.056C294.036 60.2507 294.313 61.1253 294.868 61.68C295.465 62.192 296.446 62.448 297.812 62.448H301.972V70H296.34C288.788 70 285.012 66.3307 285.012 58.992V41.904H280.788V34.544H285.012V25.776H294.036V34.544H301.972V41.904H294.036Z" fill="#0A0901"/>
<path d="M45.2755 16.562C42.3933 15.1443 39.383 16.3729 37.5897 20.6578C37.5897 20.6578 35.0277 14.3566 30.8646 16.562C26.7015 18.7674 28.3027 23.4933 28.3027 23.4933C29.3449 25.9131 30.568 27.7907 32.75 29.3333L35.4643 31.3333L37.5897 32C40.8929 30.6667 41.2328 30.2334 42.9286 28.6667C44.808 26.9303 45.541 25.779 46.5564 23.4933C46.5564 23.4933 48.1577 17.9797 45.2755 16.562Z" fill="#F0CA0F" stroke="black"/>
<path d="M4 97H25M25 97V78M25 97L4.80769 78.7917" stroke="black"/>
</svg>
