<svg id="visual" viewBox="0 0 1200 600" width="1200" height="600" xmlns="http://www.w3.org/2000/svg" xmlns:xlink="http://www.w3.org/1999/xlink" version="1.1"><rect x="0" y="0" width="1200" height="600" fill="#84f77e"></rect><path d="M0 466L28.5 474C57 482 114 498 171.2 490.8C228.3 483.7 285.7 453.3 342.8 433.8C400 414.3 457 405.7 514.2 419.2C571.3 432.7 628.7 468.3 685.8 476.8C743 485.3 800 466.7 857.2 461.8C914.3 457 971.7 466 1028.8 454.7C1086 443.3 1143 411.7 1171.5 395.8L1200 380L1200 601L1171.5 601C1143 601 1086 601 1028.8 601C971.7 601 914.3 601 857.2 601C800 601 743 601 685.8 601C628.7 601 571.3 601 514.2 601C457 601 400 601 342.8 601C285.7 601 228.3 601 171.2 601C114 601 57 601 28.5 601L0 601Z" fill="#FFFDF7" stroke-linecap="round" stroke-linejoin="miter"></path></svg>