<svg width="1440" height="2826" viewBox="0 0 1440 2826" fill="none" xmlns="http://www.w3.org/2000/svg">
<g clip-path="url(#clip0_382_77)">
<path d="M1440 0H0V2826H1440V0Z" fill="#FFFDF7"/>
<path d="M1440 1486.48C1346.8 1449.46 1253.7 1412.43 1177 1287.24C1100.4 1162.05 1040.3 948.406 999.2 719.217C958.1 490.028 936.1 245.014 914 0H1440V1486.48Z" fill="#DAF5A8"/>
<path d="M1440 743.238C1393.4 724.586 1346.8 706.217 1308.5 643.48C1270.2 581.026 1240.1 474.203 1219.6 359.75C1199.1 245.014 1188 122.366 1177 0H1440V743.238Z" fill="#55F585"/>
<path d="M0 1339.52C84.3 1413.56 168.6 1487.61 250 1602.34C331.4 1716.79 410 1872.22 455.5 2082.76C501 2293.58 513.5 2559.79 526 2826H0V1339.52Z" fill="#DAF5A8"/>
<path d="M0 2082.76C42.1 2119.78 84.3 2156.8 125 2214.17C165.7 2271.54 205 2348.97 227.7 2454.38C250.5 2559.79 256.7 2692.9 263 2826H0V2082.76Z" fill="#55F585"/>
</g>
<defs>
<clipPath id="clip0_382_77">
<rect width="1440" height="2826" fill="white"/>
</clipPath>
</defs>
</svg>
