<svg id="visual" viewBox="0 0 1200 600" width="1200" height="600" xmlns="http://www.w3.org/2000/svg" xmlns:xlink="http://www.w3.org/1999/xlink" version="1.1"><path d="M1001 600L988.7 575C976.3 550 951.7 500 924.8 450C898 400 869 350 863.8 300C858.7 250 877.3 200 879.8 150C882.3 100 868.7 50 861.8 25L855 0L1200 0L1200 25C1200 50 1200 100 1200 150C1200 200 1200 250 1200 300C1200 350 1200 400 1200 450C1200 500 1200 550 1200 575L1200 600Z" fill="#daf5a8"></path><path d="M919 600L937.2 575C955.3 550 991.7 500 991 450C990.3 400 952.7 350 953 300C953.3 250 991.7 200 1014.5 150C1037.3 100 1044.7 50 1048.3 25L1052 0L1200 0L1200 25C1200 50 1200 100 1200 150C1200 200 1200 250 1200 300C1200 350 1200 400 1200 450C1200 500 1200 550 1200 575L1200 600Z" fill="#55f585"></path></svg>